%TF.GenerationSoftware,KiCad,Pcbnew,(6.0.9)*%
%TF.CreationDate,2023-11-17T13:22:31+01:00*%
%TF.ProjectId,datakeyboard,64617461-6b65-4796-926f-6172642e6b69,2*%
%TF.SameCoordinates,Original*%
%TF.FileFunction,Legend,Top*%
%TF.FilePolarity,Positive*%
%FSLAX46Y46*%
G04 Gerber Fmt 4.6, Leading zero omitted, Abs format (unit mm)*
G04 Created by KiCad (PCBNEW (6.0.9)) date 2023-11-17 13:22:31*
%MOMM*%
%LPD*%
G01*
G04 APERTURE LIST*
%ADD10C,0.150000*%
%ADD11C,0.120000*%
G04 APERTURE END LIST*
D10*
%TO.C,SW2*%
X111504761Y-142233333D02*
X111552380Y-142090476D01*
X111552380Y-141852380D01*
X111504761Y-141757142D01*
X111457142Y-141709523D01*
X111361904Y-141661904D01*
X111266666Y-141661904D01*
X111171428Y-141709523D01*
X111123809Y-141757142D01*
X111076190Y-141852380D01*
X111028571Y-142042857D01*
X110980952Y-142138095D01*
X110933333Y-142185714D01*
X110838095Y-142233333D01*
X110742857Y-142233333D01*
X110647619Y-142185714D01*
X110600000Y-142138095D01*
X110552380Y-142042857D01*
X110552380Y-141804761D01*
X110600000Y-141661904D01*
X110552380Y-141328571D02*
X111552380Y-141090476D01*
X110838095Y-140900000D01*
X111552380Y-140709523D01*
X110552380Y-140471428D01*
X110647619Y-140138095D02*
X110600000Y-140090476D01*
X110552380Y-139995238D01*
X110552380Y-139757142D01*
X110600000Y-139661904D01*
X110647619Y-139614285D01*
X110742857Y-139566666D01*
X110838095Y-139566666D01*
X110980952Y-139614285D01*
X111552380Y-140185714D01*
X111552380Y-139566666D01*
%TO.C,SW1*%
X103004761Y-141333333D02*
X103052380Y-141190476D01*
X103052380Y-140952380D01*
X103004761Y-140857142D01*
X102957142Y-140809523D01*
X102861904Y-140761904D01*
X102766666Y-140761904D01*
X102671428Y-140809523D01*
X102623809Y-140857142D01*
X102576190Y-140952380D01*
X102528571Y-141142857D01*
X102480952Y-141238095D01*
X102433333Y-141285714D01*
X102338095Y-141333333D01*
X102242857Y-141333333D01*
X102147619Y-141285714D01*
X102100000Y-141238095D01*
X102052380Y-141142857D01*
X102052380Y-140904761D01*
X102100000Y-140761904D01*
X102052380Y-140428571D02*
X103052380Y-140190476D01*
X102338095Y-140000000D01*
X103052380Y-139809523D01*
X102052380Y-139571428D01*
X103052380Y-138666666D02*
X103052380Y-139238095D01*
X103052380Y-138952380D02*
X102052380Y-138952380D01*
X102195238Y-139047619D01*
X102290476Y-139142857D01*
X102338095Y-139238095D01*
%TO.C,JDISP1*%
X99352380Y-117967619D02*
X100066666Y-117967619D01*
X100209523Y-118015238D01*
X100304761Y-118110476D01*
X100352380Y-118253333D01*
X100352380Y-118348571D01*
X100352380Y-117491428D02*
X99352380Y-117491428D01*
X99352380Y-117253333D01*
X99400000Y-117110476D01*
X99495238Y-117015238D01*
X99590476Y-116967619D01*
X99780952Y-116920000D01*
X99923809Y-116920000D01*
X100114285Y-116967619D01*
X100209523Y-117015238D01*
X100304761Y-117110476D01*
X100352380Y-117253333D01*
X100352380Y-117491428D01*
X100352380Y-116491428D02*
X99352380Y-116491428D01*
X100304761Y-116062857D02*
X100352380Y-115920000D01*
X100352380Y-115681904D01*
X100304761Y-115586666D01*
X100257142Y-115539047D01*
X100161904Y-115491428D01*
X100066666Y-115491428D01*
X99971428Y-115539047D01*
X99923809Y-115586666D01*
X99876190Y-115681904D01*
X99828571Y-115872380D01*
X99780952Y-115967619D01*
X99733333Y-116015238D01*
X99638095Y-116062857D01*
X99542857Y-116062857D01*
X99447619Y-116015238D01*
X99400000Y-115967619D01*
X99352380Y-115872380D01*
X99352380Y-115634285D01*
X99400000Y-115491428D01*
X100352380Y-115062857D02*
X99352380Y-115062857D01*
X99352380Y-114681904D01*
X99400000Y-114586666D01*
X99447619Y-114539047D01*
X99542857Y-114491428D01*
X99685714Y-114491428D01*
X99780952Y-114539047D01*
X99828571Y-114586666D01*
X99876190Y-114681904D01*
X99876190Y-115062857D01*
X100352380Y-113539047D02*
X100352380Y-114110476D01*
X100352380Y-113824761D02*
X99352380Y-113824761D01*
X99495238Y-113920000D01*
X99590476Y-114015238D01*
X99638095Y-114110476D01*
%TO.C,D1*%
X151652380Y-145538095D02*
X150652380Y-145538095D01*
X150652380Y-145300000D01*
X150700000Y-145157142D01*
X150795238Y-145061904D01*
X150890476Y-145014285D01*
X151080952Y-144966666D01*
X151223809Y-144966666D01*
X151414285Y-145014285D01*
X151509523Y-145061904D01*
X151604761Y-145157142D01*
X151652380Y-145300000D01*
X151652380Y-145538095D01*
X151652380Y-144014285D02*
X151652380Y-144585714D01*
X151652380Y-144300000D02*
X150652380Y-144300000D01*
X150795238Y-144395238D01*
X150890476Y-144490476D01*
X150938095Y-144585714D01*
%TO.C,SW5*%
X137004761Y-141333333D02*
X137052380Y-141190476D01*
X137052380Y-140952380D01*
X137004761Y-140857142D01*
X136957142Y-140809523D01*
X136861904Y-140761904D01*
X136766666Y-140761904D01*
X136671428Y-140809523D01*
X136623809Y-140857142D01*
X136576190Y-140952380D01*
X136528571Y-141142857D01*
X136480952Y-141238095D01*
X136433333Y-141285714D01*
X136338095Y-141333333D01*
X136242857Y-141333333D01*
X136147619Y-141285714D01*
X136100000Y-141238095D01*
X136052380Y-141142857D01*
X136052380Y-140904761D01*
X136100000Y-140761904D01*
X136052380Y-140428571D02*
X137052380Y-140190476D01*
X136338095Y-140000000D01*
X137052380Y-139809523D01*
X136052380Y-139571428D01*
X136052380Y-138714285D02*
X136052380Y-139190476D01*
X136528571Y-139238095D01*
X136480952Y-139190476D01*
X136433333Y-139095238D01*
X136433333Y-138857142D01*
X136480952Y-138761904D01*
X136528571Y-138714285D01*
X136623809Y-138666666D01*
X136861904Y-138666666D01*
X136957142Y-138714285D01*
X137004761Y-138761904D01*
X137052380Y-138857142D01*
X137052380Y-139095238D01*
X137004761Y-139190476D01*
X136957142Y-139238095D01*
%TO.C,SW3*%
X120004761Y-140433333D02*
X120052380Y-140290476D01*
X120052380Y-140052380D01*
X120004761Y-139957142D01*
X119957142Y-139909523D01*
X119861904Y-139861904D01*
X119766666Y-139861904D01*
X119671428Y-139909523D01*
X119623809Y-139957142D01*
X119576190Y-140052380D01*
X119528571Y-140242857D01*
X119480952Y-140338095D01*
X119433333Y-140385714D01*
X119338095Y-140433333D01*
X119242857Y-140433333D01*
X119147619Y-140385714D01*
X119100000Y-140338095D01*
X119052380Y-140242857D01*
X119052380Y-140004761D01*
X119100000Y-139861904D01*
X119052380Y-139528571D02*
X120052380Y-139290476D01*
X119338095Y-139100000D01*
X120052380Y-138909523D01*
X119052380Y-138671428D01*
X119052380Y-138385714D02*
X119052380Y-137766666D01*
X119433333Y-138100000D01*
X119433333Y-137957142D01*
X119480952Y-137861904D01*
X119528571Y-137814285D01*
X119623809Y-137766666D01*
X119861904Y-137766666D01*
X119957142Y-137814285D01*
X120004761Y-137861904D01*
X120052380Y-137957142D01*
X120052380Y-138242857D01*
X120004761Y-138338095D01*
X119957142Y-138385714D01*
%TO.C,JUSB1*%
X155252380Y-140333333D02*
X155966666Y-140333333D01*
X156109523Y-140380952D01*
X156204761Y-140476190D01*
X156252380Y-140619047D01*
X156252380Y-140714285D01*
X155252380Y-139857142D02*
X156061904Y-139857142D01*
X156157142Y-139809523D01*
X156204761Y-139761904D01*
X156252380Y-139666666D01*
X156252380Y-139476190D01*
X156204761Y-139380952D01*
X156157142Y-139333333D01*
X156061904Y-139285714D01*
X155252380Y-139285714D01*
X156204761Y-138857142D02*
X156252380Y-138714285D01*
X156252380Y-138476190D01*
X156204761Y-138380952D01*
X156157142Y-138333333D01*
X156061904Y-138285714D01*
X155966666Y-138285714D01*
X155871428Y-138333333D01*
X155823809Y-138380952D01*
X155776190Y-138476190D01*
X155728571Y-138666666D01*
X155680952Y-138761904D01*
X155633333Y-138809523D01*
X155538095Y-138857142D01*
X155442857Y-138857142D01*
X155347619Y-138809523D01*
X155300000Y-138761904D01*
X155252380Y-138666666D01*
X155252380Y-138428571D01*
X155300000Y-138285714D01*
X155728571Y-137523809D02*
X155776190Y-137380952D01*
X155823809Y-137333333D01*
X155919047Y-137285714D01*
X156061904Y-137285714D01*
X156157142Y-137333333D01*
X156204761Y-137380952D01*
X156252380Y-137476190D01*
X156252380Y-137857142D01*
X155252380Y-137857142D01*
X155252380Y-137523809D01*
X155300000Y-137428571D01*
X155347619Y-137380952D01*
X155442857Y-137333333D01*
X155538095Y-137333333D01*
X155633333Y-137380952D01*
X155680952Y-137428571D01*
X155728571Y-137523809D01*
X155728571Y-137857142D01*
X156252380Y-136333333D02*
X156252380Y-136904761D01*
X156252380Y-136619047D02*
X155252380Y-136619047D01*
X155395238Y-136714285D01*
X155490476Y-136809523D01*
X155538095Y-136904761D01*
%TO.C,SW6*%
X145504761Y-141133333D02*
X145552380Y-140990476D01*
X145552380Y-140752380D01*
X145504761Y-140657142D01*
X145457142Y-140609523D01*
X145361904Y-140561904D01*
X145266666Y-140561904D01*
X145171428Y-140609523D01*
X145123809Y-140657142D01*
X145076190Y-140752380D01*
X145028571Y-140942857D01*
X144980952Y-141038095D01*
X144933333Y-141085714D01*
X144838095Y-141133333D01*
X144742857Y-141133333D01*
X144647619Y-141085714D01*
X144600000Y-141038095D01*
X144552380Y-140942857D01*
X144552380Y-140704761D01*
X144600000Y-140561904D01*
X144552380Y-140228571D02*
X145552380Y-139990476D01*
X144838095Y-139800000D01*
X145552380Y-139609523D01*
X144552380Y-139371428D01*
X144552380Y-138561904D02*
X144552380Y-138752380D01*
X144600000Y-138847619D01*
X144647619Y-138895238D01*
X144790476Y-138990476D01*
X144980952Y-139038095D01*
X145361904Y-139038095D01*
X145457142Y-138990476D01*
X145504761Y-138942857D01*
X145552380Y-138847619D01*
X145552380Y-138657142D01*
X145504761Y-138561904D01*
X145457142Y-138514285D01*
X145361904Y-138466666D01*
X145123809Y-138466666D01*
X145028571Y-138514285D01*
X144980952Y-138561904D01*
X144933333Y-138657142D01*
X144933333Y-138847619D01*
X144980952Y-138942857D01*
X145028571Y-138990476D01*
X145123809Y-139038095D01*
%TO.C,JPICKKIT1*%
X111109523Y-108652380D02*
X111109523Y-109366666D01*
X111061904Y-109509523D01*
X110966666Y-109604761D01*
X110823809Y-109652380D01*
X110728571Y-109652380D01*
X111585714Y-109652380D02*
X111585714Y-108652380D01*
X111966666Y-108652380D01*
X112061904Y-108700000D01*
X112109523Y-108747619D01*
X112157142Y-108842857D01*
X112157142Y-108985714D01*
X112109523Y-109080952D01*
X112061904Y-109128571D01*
X111966666Y-109176190D01*
X111585714Y-109176190D01*
X112585714Y-109652380D02*
X112585714Y-108652380D01*
X113633333Y-109557142D02*
X113585714Y-109604761D01*
X113442857Y-109652380D01*
X113347619Y-109652380D01*
X113204761Y-109604761D01*
X113109523Y-109509523D01*
X113061904Y-109414285D01*
X113014285Y-109223809D01*
X113014285Y-109080952D01*
X113061904Y-108890476D01*
X113109523Y-108795238D01*
X113204761Y-108700000D01*
X113347619Y-108652380D01*
X113442857Y-108652380D01*
X113585714Y-108700000D01*
X113633333Y-108747619D01*
X114061904Y-109652380D02*
X114061904Y-108652380D01*
X114633333Y-109652380D02*
X114204761Y-109080952D01*
X114633333Y-108652380D02*
X114061904Y-109223809D01*
X115061904Y-109652380D02*
X115061904Y-108652380D01*
X115633333Y-109652380D02*
X115204761Y-109080952D01*
X115633333Y-108652380D02*
X115061904Y-109223809D01*
X116061904Y-109652380D02*
X116061904Y-108652380D01*
X116395238Y-108652380D02*
X116966666Y-108652380D01*
X116680952Y-109652380D02*
X116680952Y-108652380D01*
X117823809Y-109652380D02*
X117252380Y-109652380D01*
X117538095Y-109652380D02*
X117538095Y-108652380D01*
X117442857Y-108795238D01*
X117347619Y-108890476D01*
X117252380Y-108938095D01*
%TO.C,SW4*%
X134904761Y-141333333D02*
X134952380Y-141190476D01*
X134952380Y-140952380D01*
X134904761Y-140857142D01*
X134857142Y-140809523D01*
X134761904Y-140761904D01*
X134666666Y-140761904D01*
X134571428Y-140809523D01*
X134523809Y-140857142D01*
X134476190Y-140952380D01*
X134428571Y-141142857D01*
X134380952Y-141238095D01*
X134333333Y-141285714D01*
X134238095Y-141333333D01*
X134142857Y-141333333D01*
X134047619Y-141285714D01*
X134000000Y-141238095D01*
X133952380Y-141142857D01*
X133952380Y-140904761D01*
X134000000Y-140761904D01*
X133952380Y-140428571D02*
X134952380Y-140190476D01*
X134238095Y-140000000D01*
X134952380Y-139809523D01*
X133952380Y-139571428D01*
X134285714Y-138761904D02*
X134952380Y-138761904D01*
X133904761Y-139000000D02*
X134619047Y-139238095D01*
X134619047Y-138619047D01*
D11*
%TO.C,SW2*%
X110270000Y-137270000D02*
X110300000Y-137270000D01*
X110300000Y-143730000D02*
X110270000Y-143730000D01*
X116730000Y-137270000D02*
X116700000Y-137270000D01*
X112200000Y-143730000D02*
X114800000Y-143730000D01*
X116730000Y-143730000D02*
X116730000Y-137270000D01*
X112200000Y-137270000D02*
X114800000Y-137270000D01*
X116730000Y-143730000D02*
X116700000Y-143730000D01*
X110270000Y-143730000D02*
X110270000Y-137270000D01*
%TO.C,SW1*%
X108230000Y-143230000D02*
X108200000Y-143230000D01*
X108230000Y-143230000D02*
X108230000Y-136770000D01*
X108230000Y-136770000D02*
X108200000Y-136770000D01*
X103700000Y-143230000D02*
X106300000Y-143230000D01*
X101770000Y-136770000D02*
X101800000Y-136770000D01*
X103700000Y-136770000D02*
X106300000Y-136770000D01*
X101770000Y-143230000D02*
X101770000Y-136770000D01*
X101800000Y-143230000D02*
X101770000Y-143230000D01*
%TO.C,JDISP1*%
X103330000Y-124550000D02*
X103330000Y-106710000D01*
X103330000Y-124550000D02*
X100670000Y-124550000D01*
X103330000Y-127150000D02*
X102000000Y-127150000D01*
X103330000Y-106710000D02*
X100670000Y-106710000D01*
X100670000Y-124550000D02*
X100670000Y-106710000D01*
X103330000Y-125820000D02*
X103330000Y-127150000D01*
%TO.C,D1*%
X151840000Y-143865000D02*
X151840000Y-146135000D01*
X151840000Y-146135000D02*
X155900000Y-146135000D01*
X155900000Y-143865000D02*
X151840000Y-143865000D01*
%TO.C,SW5*%
X135770000Y-136770000D02*
X135800000Y-136770000D01*
X135770000Y-143230000D02*
X135770000Y-136770000D01*
X142230000Y-143230000D02*
X142200000Y-143230000D01*
X137700000Y-136770000D02*
X140300000Y-136770000D01*
X142230000Y-136770000D02*
X142200000Y-136770000D01*
X142230000Y-143230000D02*
X142230000Y-136770000D01*
X135800000Y-143230000D02*
X135770000Y-143230000D01*
X137700000Y-143230000D02*
X140300000Y-143230000D01*
%TO.C,SW3*%
X118800000Y-142730000D02*
X118770000Y-142730000D01*
X120700000Y-142730000D02*
X123300000Y-142730000D01*
X118770000Y-142730000D02*
X118770000Y-136270000D01*
X118770000Y-136270000D02*
X118800000Y-136270000D01*
X120700000Y-136270000D02*
X123300000Y-136270000D01*
X125230000Y-136270000D02*
X125200000Y-136270000D01*
X125230000Y-142730000D02*
X125200000Y-142730000D01*
X125230000Y-142730000D02*
X125230000Y-136270000D01*
D10*
%TO.C,JUSB1*%
X151420000Y-139575000D02*
X151420000Y-140300000D01*
X157995000Y-134650000D02*
X157545000Y-134650000D01*
X151420000Y-140300000D02*
X151845000Y-140300000D01*
X157395000Y-142650000D02*
X157545000Y-142650000D01*
X151845000Y-140300000D02*
X151845000Y-141025000D01*
X157545000Y-134650000D02*
X157545000Y-134350000D01*
X157545000Y-142650000D02*
X157545000Y-142350000D01*
X153595000Y-142650000D02*
X154995000Y-142650000D01*
X154995000Y-134350000D02*
X153595000Y-134350000D01*
X151845000Y-136700000D02*
X151845000Y-135975000D01*
X157545000Y-142350000D02*
X157995000Y-142350000D01*
X157545000Y-134350000D02*
X157395000Y-134350000D01*
D11*
%TO.C,SW6*%
X150730000Y-136770000D02*
X150700000Y-136770000D01*
X146200000Y-143230000D02*
X148800000Y-143230000D01*
X144270000Y-136770000D02*
X144300000Y-136770000D01*
X150730000Y-143230000D02*
X150730000Y-136770000D01*
X144270000Y-143230000D02*
X144270000Y-136770000D01*
X144300000Y-143230000D02*
X144270000Y-143230000D01*
X150730000Y-143230000D02*
X150700000Y-143230000D01*
X146200000Y-136770000D02*
X148800000Y-136770000D01*
%TO.C,JPICKKIT1*%
X120350000Y-105670000D02*
X121680000Y-105670000D01*
X119080000Y-108330000D02*
X106320000Y-108330000D01*
X106320000Y-105670000D02*
X106320000Y-108330000D01*
X121680000Y-105670000D02*
X121680000Y-107000000D01*
X119080000Y-105670000D02*
X106320000Y-105670000D01*
X119080000Y-105670000D02*
X119080000Y-108330000D01*
%TO.C,SW4*%
X133730000Y-143230000D02*
X133700000Y-143230000D01*
X131800000Y-143230000D02*
X129200000Y-143230000D01*
X133700000Y-136770000D02*
X133730000Y-136770000D01*
X133730000Y-136770000D02*
X133730000Y-143230000D01*
X127270000Y-136770000D02*
X127270000Y-143230000D01*
X127270000Y-136770000D02*
X127300000Y-136770000D01*
X131800000Y-136770000D02*
X129200000Y-136770000D01*
X127270000Y-143230000D02*
X127300000Y-143230000D01*
%TD*%
M02*
