M48
; DRILL file {KiCad (6.0.9)} date Fri Nov 17 13:21:11 2023
; FORMAT={-:-/ absolute / inch / decimal}
; #@! TF.CreationDate,2023-11-17T13:21:11+01:00
; #@! TF.GenerationSoftware,Kicad,Pcbnew,(6.0.9)
; #@! TF.FileFunction,Plated,1,2,PTH
FMAT,2
INCH
; #@! TA.AperFunction,Plated,PTH,ViaDrill
T1C0.0118
; #@! TA.AperFunction,Plated,PTH,ViaDrill
T2C0.0197
; #@! TA.AperFunction,Plated,PTH,ComponentDrill
T3C0.0394
; #@! TA.AperFunction,Plated,PTH,ComponentDrill
T4C0.0472
; #@! TA.AperFunction,Plated,PTH,ComponentDrill
T5C0.0551
%
G90
G05
T1
X4.0315Y-5.2362
X4.0699Y-4.8031
X4.11Y-4.25
X4.2165Y-4.6378
X4.2165Y-4.6939
X4.2283Y-5.4055
X4.2283Y-5.622
X4.2441Y-4.5118
X4.2441Y-4.5433
X4.27Y-4.98
X4.3543Y-5.1339
X4.3622Y-4.7323
X4.3858Y-5.5157
X4.3898Y-4.7677
X4.3898Y-5.1339
X4.3942Y-4.7366
X4.4055Y-4.4331
X4.4213Y-5.1339
X4.4843Y-4.4449
X4.5118Y-4.5906
X4.5591Y-4.5433
X4.563Y-4.9784
X4.563Y-5.0689
X4.563Y-5.4449
X4.563Y-5.6329
X4.5669Y-5.2835
X4.5945Y-4.9784
X4.5945Y-5.0689
X4.5945Y-5.4439
X4.5955Y-4.5748
X4.6024Y-5.252
X4.6151Y-4.9409
X4.6181Y-4.3071
X4.6201Y-4.5501
X4.626Y-5.4449
X4.6447Y-4.5748
X4.6447Y-4.8924
X4.6535Y-4.3346
X4.6693Y-4.5472
X4.6703Y-5.0748
X4.6781Y-5.248
X4.6939Y-4.5748
X4.7205Y-4.3425
X4.7244Y-4.3819
X4.7402Y-5.248
X4.7717Y-5.2323
X4.7953Y-4.6693
X4.7953Y-4.7323
X4.8031Y-5.1882
X4.8228Y-5.6654
X4.8504Y-5.3346
X4.8706Y-4.8268
X4.8706Y-4.8603
X4.9296Y-4.8268
X4.9296Y-4.8582
X4.9705Y-4.3209
X5.0039Y-4.372
X5.0118Y-5.3543
X5.0118Y-5.6614
X5.0276Y-4.3966
X5.0279Y-4.3475
X5.0945Y-4.3465
X5.0984Y-4.8346
X5.0984Y-4.8031
X5.1181Y-4.4213
X5.1355Y-4.3835
X5.1801Y-4.8031
X5.2047Y-4.8307
X5.3839Y-5.0886
X5.4331Y-4.3622
X5.437Y-4.8976
X5.5079Y-5.3031
X5.5109Y-5.3716
X5.5157Y-5.6457
X5.5748Y-5.2677
X5.622Y-5.2962
X5.8268Y-5.7047
X5.8583Y-5.3543
X5.8583Y-5.6654
X5.9291Y-5.4724
X5.9567Y-5.4528
X6.062Y-5.4764
X6.0669Y-5.6772
X6.1025Y-5.6574
T2
X4.0118Y-5.0236
X4.09Y-4.18
X4.1142Y-5.6535
X4.1575Y-4.9724
X4.1693Y-4.4291
X4.2008Y-5.0551
X4.2677Y-4.3307
X4.32Y-5.01
X4.4094Y-4.3071
X4.4291Y-5.689
X4.4626Y-4.7677
X4.4724Y-5.5
X4.4882Y-5.1417
X4.5295Y-4.7677
X4.622Y-4.4331
X4.8425Y-4.7126
X4.9173Y-4.4488
X4.9213Y-4.9331
X4.9252Y-5.1142
X4.9409Y-4.7205
X5.0Y-4.6063
X5.2849Y-5.0976
X5.3976Y-4.5551
X5.4213Y-5.126
X5.8701Y-5.4803
T3
X4.0157Y-4.2535
X4.0157Y-4.3535
X4.0157Y-4.4535
X4.0157Y-4.5535
X4.0157Y-4.6535
X4.0157Y-4.7535
X4.0157Y-4.8535
X4.0157Y-4.9535
X4.1142Y-5.2559
X4.1142Y-5.5709
X4.2382Y-4.2126
X4.3382Y-4.2126
X4.4382Y-4.2126
X4.5382Y-4.2126
X4.6382Y-4.2126
X4.7382Y-4.2126
T4
X6.1494Y-5.3002
X6.1494Y-5.6053
T5
X5.9998Y-5.3061
X5.9998Y-5.5994
T0
M30
