%TF.GenerationSoftware,KiCad,Pcbnew,(6.0.9)*%
%TF.CreationDate,2023-11-17T13:22:31+01:00*%
%TF.ProjectId,datakeyboard,64617461-6b65-4796-926f-6172642e6b69,2*%
%TF.SameCoordinates,Original*%
%TF.FileFunction,Paste,Bot*%
%TF.FilePolarity,Positive*%
%FSLAX46Y46*%
G04 Gerber Fmt 4.6, Leading zero omitted, Abs format (unit mm)*
G04 Created by KiCad (PCBNEW (6.0.9)) date 2023-11-17 13:22:31*
%MOMM*%
%LPD*%
G01*
G04 APERTURE LIST*
G04 Aperture macros list*
%AMRoundRect*
0 Rectangle with rounded corners*
0 $1 Rounding radius*
0 $2 $3 $4 $5 $6 $7 $8 $9 X,Y pos of 4 corners*
0 Add a 4 corners polygon primitive as box body*
4,1,4,$2,$3,$4,$5,$6,$7,$8,$9,$2,$3,0*
0 Add four circle primitives for the rounded corners*
1,1,$1+$1,$2,$3*
1,1,$1+$1,$4,$5*
1,1,$1+$1,$6,$7*
1,1,$1+$1,$8,$9*
0 Add four rect primitives between the rounded corners*
20,1,$1+$1,$2,$3,$4,$5,0*
20,1,$1+$1,$4,$5,$6,$7,0*
20,1,$1+$1,$6,$7,$8,$9,0*
20,1,$1+$1,$8,$9,$2,$3,0*%
G04 Aperture macros list end*
%ADD10RoundRect,0.250000X0.450000X-0.350000X0.450000X0.350000X-0.450000X0.350000X-0.450000X-0.350000X0*%
%ADD11R,1.200000X0.700000*%
%ADD12R,2.000000X1.000000*%
%ADD13R,2.800000X1.000000*%
%ADD14R,1.500000X0.550000*%
%ADD15R,0.550000X1.500000*%
%ADD16RoundRect,0.250000X-0.450000X0.350000X-0.450000X-0.350000X0.450000X-0.350000X0.450000X0.350000X0*%
%ADD17RoundRect,0.237500X-0.237500X0.300000X-0.237500X-0.300000X0.237500X-0.300000X0.237500X0.300000X0*%
%ADD18RoundRect,0.237500X0.300000X0.237500X-0.300000X0.237500X-0.300000X-0.237500X0.300000X-0.237500X0*%
%ADD19RoundRect,0.150000X0.150000X-0.512500X0.150000X0.512500X-0.150000X0.512500X-0.150000X-0.512500X0*%
%ADD20RoundRect,0.250000X0.350000X0.450000X-0.350000X0.450000X-0.350000X-0.450000X0.350000X-0.450000X0*%
%ADD21RoundRect,0.250000X0.337500X0.475000X-0.337500X0.475000X-0.337500X-0.475000X0.337500X-0.475000X0*%
%ADD22RoundRect,0.237500X0.237500X-0.300000X0.237500X0.300000X-0.237500X0.300000X-0.237500X-0.300000X0*%
%ADD23RoundRect,0.150000X-0.150000X0.587500X-0.150000X-0.587500X0.150000X-0.587500X0.150000X0.587500X0*%
%ADD24RoundRect,0.150000X0.587500X0.150000X-0.587500X0.150000X-0.587500X-0.150000X0.587500X-0.150000X0*%
%ADD25RoundRect,0.250001X0.462499X0.624999X-0.462499X0.624999X-0.462499X-0.624999X0.462499X-0.624999X0*%
%ADD26RoundRect,0.250000X-0.475000X0.337500X-0.475000X-0.337500X0.475000X-0.337500X0.475000X0.337500X0*%
G04 APERTURE END LIST*
D10*
%TO.C,R14*%
X104775000Y-111236000D03*
X104775000Y-109236000D03*
%TD*%
D11*
%TO.C,JCARD1*%
X114725000Y-134225000D03*
X114725000Y-135325000D03*
X114725000Y-136425000D03*
X114725000Y-137525000D03*
X114725000Y-138625000D03*
X114725000Y-139725000D03*
X114725000Y-140825000D03*
X114725000Y-141925000D03*
X114725000Y-143025000D03*
D12*
X114000000Y-144500000D03*
D13*
X104500000Y-128500000D03*
X104500000Y-144500000D03*
D12*
X114000000Y-129500000D03*
%TD*%
D14*
%TO.C,U1*%
X109300000Y-121000000D03*
X109300000Y-120200000D03*
X109300000Y-119400000D03*
X109300000Y-118600000D03*
X109300000Y-117800000D03*
X109300000Y-117000000D03*
X109300000Y-116200000D03*
X109300000Y-115400000D03*
X109300000Y-114600000D03*
X109300000Y-113800000D03*
X109300000Y-113000000D03*
D15*
X111000000Y-111300000D03*
X111800000Y-111300000D03*
X112600000Y-111300000D03*
X113400000Y-111300000D03*
X114200000Y-111300000D03*
X115000000Y-111300000D03*
X115800000Y-111300000D03*
X116600000Y-111300000D03*
X117400000Y-111300000D03*
X118200000Y-111300000D03*
X119000000Y-111300000D03*
D14*
X120700000Y-113000000D03*
X120700000Y-113800000D03*
X120700000Y-114600000D03*
X120700000Y-115400000D03*
X120700000Y-116200000D03*
X120700000Y-117000000D03*
X120700000Y-117800000D03*
X120700000Y-118600000D03*
X120700000Y-119400000D03*
X120700000Y-120200000D03*
X120700000Y-121000000D03*
D15*
X119000000Y-122700000D03*
X118200000Y-122700000D03*
X117400000Y-122700000D03*
X116600000Y-122700000D03*
X115800000Y-122700000D03*
X115000000Y-122700000D03*
X114200000Y-122700000D03*
X113400000Y-122700000D03*
X112600000Y-122700000D03*
X111800000Y-122700000D03*
X111000000Y-122700000D03*
%TD*%
D16*
%TO.C,R1*%
X131700000Y-115500000D03*
X131700000Y-117500000D03*
%TD*%
D17*
%TO.C,C10*%
X123000000Y-116750000D03*
X123000000Y-118475000D03*
%TD*%
D16*
%TO.C,R5*%
X135000000Y-112000000D03*
X135000000Y-114000000D03*
%TD*%
D18*
%TO.C,C6*%
X115000000Y-109000000D03*
X113275000Y-109000000D03*
%TD*%
D19*
%TO.C,U3*%
X127950000Y-118137500D03*
X127000000Y-118137500D03*
X126050000Y-118137500D03*
X126050000Y-115862500D03*
X127950000Y-115862500D03*
%TD*%
%TO.C,U2*%
X135050000Y-128137500D03*
X134100000Y-128137500D03*
X133150000Y-128137500D03*
X133150000Y-125862500D03*
X135050000Y-125862500D03*
%TD*%
D10*
%TO.C,R10*%
X123500000Y-132000000D03*
X123500000Y-130000000D03*
%TD*%
D16*
%TO.C,R11*%
X123500000Y-125500000D03*
X123500000Y-127500000D03*
%TD*%
D10*
%TO.C,R4*%
X138000000Y-114000000D03*
X138000000Y-112000000D03*
%TD*%
D20*
%TO.C,R13*%
X137100000Y-117100000D03*
X135100000Y-117100000D03*
%TD*%
D21*
%TO.C,C2*%
X128037500Y-113000000D03*
X125962500Y-113000000D03*
%TD*%
D22*
%TO.C,C7*%
X126000000Y-127500000D03*
X126000000Y-125775000D03*
%TD*%
D23*
%TO.C,D3*%
X128350000Y-124562500D03*
X130250000Y-124562500D03*
X129300000Y-126437500D03*
%TD*%
%TO.C,Q1*%
X119500000Y-130000000D03*
X121400000Y-130000000D03*
X120450000Y-131875000D03*
%TD*%
D22*
%TO.C,C5*%
X107200000Y-111662500D03*
X107200000Y-109937500D03*
%TD*%
D16*
%TO.C,R3*%
X152800000Y-138100000D03*
X152800000Y-140100000D03*
%TD*%
D10*
%TO.C,R8*%
X124000000Y-109000000D03*
X124000000Y-107000000D03*
%TD*%
D23*
%TO.C,Q2*%
X119500000Y-125562500D03*
X121400000Y-125562500D03*
X120450000Y-127437500D03*
%TD*%
D18*
%TO.C,C8*%
X114862500Y-125500000D03*
X113137500Y-125500000D03*
%TD*%
D10*
%TO.C,R12*%
X133300000Y-122750000D03*
X133300000Y-120750000D03*
%TD*%
D22*
%TO.C,C9*%
X126000000Y-132000000D03*
X126000000Y-130275000D03*
%TD*%
D21*
%TO.C,C1*%
X128037500Y-121000000D03*
X125962500Y-121000000D03*
%TD*%
D10*
%TO.C,R2*%
X155800000Y-140100000D03*
X155800000Y-138100000D03*
%TD*%
D17*
%TO.C,C11*%
X126250000Y-107025000D03*
X126250000Y-108750000D03*
%TD*%
D10*
%TO.C,R7*%
X128500000Y-109000000D03*
X128500000Y-107000000D03*
%TD*%
D23*
%TO.C,Q4*%
X135550000Y-120812500D03*
X137450000Y-120812500D03*
X136500000Y-122687500D03*
%TD*%
D24*
%TO.C,Q3*%
X136937500Y-107050000D03*
X136937500Y-108950000D03*
X135062500Y-108000000D03*
%TD*%
D10*
%TO.C,R6*%
X132500000Y-109000000D03*
X132500000Y-107000000D03*
%TD*%
D25*
%TO.C,D2*%
X155787500Y-145000000D03*
X152812500Y-145000000D03*
%TD*%
D23*
%TO.C,Q5*%
X128350000Y-129362500D03*
X130250000Y-129362500D03*
X129300000Y-131237500D03*
%TD*%
D10*
%TO.C,R9*%
X137300000Y-128000000D03*
X137300000Y-126000000D03*
%TD*%
D26*
%TO.C,C3*%
X106400000Y-113625000D03*
X106400000Y-115700000D03*
%TD*%
M02*
