%TF.GenerationSoftware,KiCad,Pcbnew,(6.0.9)*%
%TF.CreationDate,2023-11-17T13:22:31+01:00*%
%TF.ProjectId,datakeyboard,64617461-6b65-4796-926f-6172642e6b69,2*%
%TF.SameCoordinates,Original*%
%TF.FileFunction,Soldermask,Top*%
%TF.FilePolarity,Negative*%
%FSLAX46Y46*%
G04 Gerber Fmt 4.6, Leading zero omitted, Abs format (unit mm)*
G04 Created by KiCad (PCBNEW (6.0.9)) date 2023-11-17 13:22:31*
%MOMM*%
%LPD*%
G01*
G04 APERTURE LIST*
G04 Aperture macros list*
%AMRoundRect*
0 Rectangle with rounded corners*
0 $1 Rounding radius*
0 $2 $3 $4 $5 $6 $7 $8 $9 X,Y pos of 4 corners*
0 Add a 4 corners polygon primitive as box body*
4,1,4,$2,$3,$4,$5,$6,$7,$8,$9,$2,$3,0*
0 Add four circle primitives for the rounded corners*
1,1,$1+$1,$2,$3*
1,1,$1+$1,$4,$5*
1,1,$1+$1,$6,$7*
1,1,$1+$1,$8,$9*
0 Add four rect primitives between the rounded corners*
20,1,$1+$1,$2,$3,$4,$5,0*
20,1,$1+$1,$4,$5,$6,$7,0*
20,1,$1+$1,$6,$7,$8,$9,0*
20,1,$1+$1,$8,$9,$2,$3,0*%
G04 Aperture macros list end*
%ADD10R,1.300000X1.550000*%
%ADD11R,1.700000X1.700000*%
%ADD12O,1.700000X1.700000*%
%ADD13RoundRect,0.250001X-0.462499X-0.624999X0.462499X-0.624999X0.462499X0.624999X-0.462499X0.624999X0*%
%ADD14R,1.300000X0.450000*%
%ADD15C,2.000000*%
%ADD16C,1.800000*%
%ADD17C,1.500000*%
G04 APERTURE END LIST*
D10*
%TO.C,SW2*%
X111250000Y-136525000D03*
X111250000Y-144475000D03*
X115750000Y-136525000D03*
X115750000Y-144475000D03*
%TD*%
%TO.C,SW1*%
X102750000Y-136025000D03*
X102750000Y-143975000D03*
X107250000Y-143975000D03*
X107250000Y-136025000D03*
%TD*%
D11*
%TO.C,JDISP1*%
X102000000Y-125820000D03*
D12*
X102000000Y-123280000D03*
X102000000Y-120740000D03*
X102000000Y-118200000D03*
X102000000Y-115660000D03*
X102000000Y-113120000D03*
X102000000Y-110580000D03*
X102000000Y-108040000D03*
%TD*%
D13*
%TO.C,D1*%
X152812500Y-145000000D03*
X155787500Y-145000000D03*
%TD*%
D10*
%TO.C,SW5*%
X136750000Y-136025000D03*
X136750000Y-143975000D03*
X141250000Y-136025000D03*
X141250000Y-143975000D03*
%TD*%
%TO.C,SW3*%
X119750000Y-135525000D03*
X119750000Y-143475000D03*
X124250000Y-143475000D03*
X124250000Y-135525000D03*
%TD*%
D14*
%TO.C,JUSB1*%
X152345000Y-139800000D03*
X152345000Y-139150000D03*
X152345000Y-138500000D03*
X152345000Y-137850000D03*
X152345000Y-137200000D03*
D15*
X152395000Y-134775000D03*
D16*
X156195000Y-134625000D03*
X156195000Y-142375000D03*
D15*
X152395000Y-142225000D03*
%TD*%
D10*
%TO.C,SW6*%
X145250000Y-143975000D03*
X145250000Y-136025000D03*
X149750000Y-143975000D03*
X149750000Y-136025000D03*
%TD*%
D11*
%TO.C,JPICKKIT1*%
X120350000Y-107000000D03*
D12*
X117810000Y-107000000D03*
X115270000Y-107000000D03*
X112730000Y-107000000D03*
X110190000Y-107000000D03*
X107650000Y-107000000D03*
%TD*%
D10*
%TO.C,SW4*%
X132750000Y-143975000D03*
X132750000Y-136025000D03*
X128250000Y-136025000D03*
X128250000Y-143975000D03*
%TD*%
D17*
%TO.C,JCARD1*%
X104500000Y-141500000D03*
X104500000Y-133500000D03*
%TD*%
M02*
