%TF.GenerationSoftware,KiCad,Pcbnew,(6.0.9)*%
%TF.CreationDate,2023-11-17T13:22:31+01:00*%
%TF.ProjectId,datakeyboard,64617461-6b65-4796-926f-6172642e6b69,2*%
%TF.SameCoordinates,Original*%
%TF.FileFunction,Legend,Bot*%
%TF.FilePolarity,Positive*%
%FSLAX46Y46*%
G04 Gerber Fmt 4.6, Leading zero omitted, Abs format (unit mm)*
G04 Created by KiCad (PCBNEW (6.0.9)) date 2023-11-17 13:22:31*
%MOMM*%
%LPD*%
G01*
G04 APERTURE LIST*
%ADD10C,0.150000*%
%ADD11C,0.120000*%
G04 APERTURE END LIST*
D10*
X136300000Y-134338095D02*
X136252380Y-134242857D01*
X136252380Y-134100000D01*
X136300000Y-133957142D01*
X136395238Y-133861904D01*
X136490476Y-133814285D01*
X136680952Y-133766666D01*
X136823809Y-133766666D01*
X137014285Y-133814285D01*
X137109523Y-133861904D01*
X137204761Y-133957142D01*
X137252380Y-134100000D01*
X137252380Y-134195238D01*
X137204761Y-134338095D01*
X137157142Y-134385714D01*
X136823809Y-134385714D01*
X136823809Y-134195238D01*
X137252380Y-134814285D02*
X136252380Y-134814285D01*
X137252380Y-135385714D01*
X136252380Y-135385714D01*
X137252380Y-135861904D02*
X136252380Y-135861904D01*
X136252380Y-136100000D01*
X136300000Y-136242857D01*
X136395238Y-136338095D01*
X136490476Y-136385714D01*
X136680952Y-136433333D01*
X136823809Y-136433333D01*
X137014285Y-136385714D01*
X137109523Y-136338095D01*
X137204761Y-136242857D01*
X137252380Y-136100000D01*
X137252380Y-135861904D01*
X107657142Y-119852380D02*
X107704761Y-119804761D01*
X107752380Y-119661904D01*
X107752380Y-119566666D01*
X107704761Y-119423809D01*
X107609523Y-119328571D01*
X107514285Y-119280952D01*
X107323809Y-119233333D01*
X107180952Y-119233333D01*
X106990476Y-119280952D01*
X106895238Y-119328571D01*
X106800000Y-119423809D01*
X106752380Y-119566666D01*
X106752380Y-119661904D01*
X106800000Y-119804761D01*
X106847619Y-119852380D01*
X107466666Y-120233333D02*
X107466666Y-120709523D01*
X107752380Y-120138095D02*
X106752380Y-120471428D01*
X107752380Y-120804761D01*
X107704761Y-121090476D02*
X107752380Y-121233333D01*
X107752380Y-121471428D01*
X107704761Y-121566666D01*
X107657142Y-121614285D01*
X107561904Y-121661904D01*
X107466666Y-121661904D01*
X107371428Y-121614285D01*
X107323809Y-121566666D01*
X107276190Y-121471428D01*
X107228571Y-121280952D01*
X107180952Y-121185714D01*
X107133333Y-121138095D01*
X107038095Y-121090476D01*
X106942857Y-121090476D01*
X106847619Y-121138095D01*
X106800000Y-121185714D01*
X106752380Y-121280952D01*
X106752380Y-121519047D01*
X106800000Y-121661904D01*
X107228571Y-122090476D02*
X107228571Y-122423809D01*
X107752380Y-122566666D02*
X107752380Y-122090476D01*
X106752380Y-122090476D01*
X106752380Y-122566666D01*
X132952380Y-133557142D02*
X133952380Y-133890476D01*
X132952380Y-134223809D01*
X133428571Y-134890476D02*
X133476190Y-135033333D01*
X133523809Y-135080952D01*
X133619047Y-135128571D01*
X133761904Y-135128571D01*
X133857142Y-135080952D01*
X133904761Y-135033333D01*
X133952380Y-134938095D01*
X133952380Y-134557142D01*
X132952380Y-134557142D01*
X132952380Y-134890476D01*
X133000000Y-134985714D01*
X133047619Y-135033333D01*
X133142857Y-135080952D01*
X133238095Y-135080952D01*
X133333333Y-135033333D01*
X133380952Y-134985714D01*
X133428571Y-134890476D01*
X133428571Y-134557142D01*
X133666666Y-135509523D02*
X133666666Y-135985714D01*
X133952380Y-135414285D02*
X132952380Y-135747619D01*
X133952380Y-136080952D01*
X132952380Y-136271428D02*
X132952380Y-136842857D01*
X133952380Y-136557142D02*
X132952380Y-136557142D01*
X105000000Y-120538095D02*
X104952380Y-120442857D01*
X104952380Y-120300000D01*
X105000000Y-120157142D01*
X105095238Y-120061904D01*
X105190476Y-120014285D01*
X105380952Y-119966666D01*
X105523809Y-119966666D01*
X105714285Y-120014285D01*
X105809523Y-120061904D01*
X105904761Y-120157142D01*
X105952380Y-120300000D01*
X105952380Y-120395238D01*
X105904761Y-120538095D01*
X105857142Y-120585714D01*
X105523809Y-120585714D01*
X105523809Y-120395238D01*
X105952380Y-121014285D02*
X104952380Y-121014285D01*
X105952380Y-121585714D01*
X104952380Y-121585714D01*
X105952380Y-122061904D02*
X104952380Y-122061904D01*
X104952380Y-122300000D01*
X105000000Y-122442857D01*
X105095238Y-122538095D01*
X105190476Y-122585714D01*
X105380952Y-122633333D01*
X105523809Y-122633333D01*
X105714285Y-122585714D01*
X105809523Y-122538095D01*
X105904761Y-122442857D01*
X105952380Y-122300000D01*
X105952380Y-122061904D01*
%TO.C,R14*%
X105862380Y-106545142D02*
X105386190Y-106211809D01*
X105862380Y-105973714D02*
X104862380Y-105973714D01*
X104862380Y-106354666D01*
X104910000Y-106449904D01*
X104957619Y-106497523D01*
X105052857Y-106545142D01*
X105195714Y-106545142D01*
X105290952Y-106497523D01*
X105338571Y-106449904D01*
X105386190Y-106354666D01*
X105386190Y-105973714D01*
X105862380Y-107497523D02*
X105862380Y-106926095D01*
X105862380Y-107211809D02*
X104862380Y-107211809D01*
X105005238Y-107116571D01*
X105100476Y-107021333D01*
X105148095Y-106926095D01*
X105195714Y-108354666D02*
X105862380Y-108354666D01*
X104814761Y-108116571D02*
X105529047Y-107878476D01*
X105529047Y-108497523D01*
%TO.C,JCARD1*%
X116202380Y-135238095D02*
X116916666Y-135238095D01*
X117059523Y-135190476D01*
X117154761Y-135095238D01*
X117202380Y-134952380D01*
X117202380Y-134857142D01*
X117107142Y-136285714D02*
X117154761Y-136238095D01*
X117202380Y-136095238D01*
X117202380Y-136000000D01*
X117154761Y-135857142D01*
X117059523Y-135761904D01*
X116964285Y-135714285D01*
X116773809Y-135666666D01*
X116630952Y-135666666D01*
X116440476Y-135714285D01*
X116345238Y-135761904D01*
X116250000Y-135857142D01*
X116202380Y-136000000D01*
X116202380Y-136095238D01*
X116250000Y-136238095D01*
X116297619Y-136285714D01*
X116916666Y-136666666D02*
X116916666Y-137142857D01*
X117202380Y-136571428D02*
X116202380Y-136904761D01*
X117202380Y-137238095D01*
X117202380Y-138142857D02*
X116726190Y-137809523D01*
X117202380Y-137571428D02*
X116202380Y-137571428D01*
X116202380Y-137952380D01*
X116250000Y-138047619D01*
X116297619Y-138095238D01*
X116392857Y-138142857D01*
X116535714Y-138142857D01*
X116630952Y-138095238D01*
X116678571Y-138047619D01*
X116726190Y-137952380D01*
X116726190Y-137571428D01*
X117202380Y-138571428D02*
X116202380Y-138571428D01*
X116202380Y-138809523D01*
X116250000Y-138952380D01*
X116345238Y-139047619D01*
X116440476Y-139095238D01*
X116630952Y-139142857D01*
X116773809Y-139142857D01*
X116964285Y-139095238D01*
X117059523Y-139047619D01*
X117154761Y-138952380D01*
X117202380Y-138809523D01*
X117202380Y-138571428D01*
X117202380Y-140095238D02*
X117202380Y-139523809D01*
X117202380Y-139809523D02*
X116202380Y-139809523D01*
X116345238Y-139714285D01*
X116440476Y-139619047D01*
X116488095Y-139523809D01*
%TO.C,U1*%
X120752380Y-110338095D02*
X121561904Y-110338095D01*
X121657142Y-110385714D01*
X121704761Y-110433333D01*
X121752380Y-110528571D01*
X121752380Y-110719047D01*
X121704761Y-110814285D01*
X121657142Y-110861904D01*
X121561904Y-110909523D01*
X120752380Y-110909523D01*
X121752380Y-111909523D02*
X121752380Y-111338095D01*
X121752380Y-111623809D02*
X120752380Y-111623809D01*
X120895238Y-111528571D01*
X120990476Y-111433333D01*
X121038095Y-111338095D01*
%TO.C,R1*%
X133852380Y-116233333D02*
X133376190Y-115900000D01*
X133852380Y-115661904D02*
X132852380Y-115661904D01*
X132852380Y-116042857D01*
X132900000Y-116138095D01*
X132947619Y-116185714D01*
X133042857Y-116233333D01*
X133185714Y-116233333D01*
X133280952Y-116185714D01*
X133328571Y-116138095D01*
X133376190Y-116042857D01*
X133376190Y-115661904D01*
X133852380Y-117185714D02*
X133852380Y-116614285D01*
X133852380Y-116900000D02*
X132852380Y-116900000D01*
X132995238Y-116804761D01*
X133090476Y-116709523D01*
X133138095Y-116614285D01*
%TO.C,C10*%
X123357142Y-113957142D02*
X123404761Y-113909523D01*
X123452380Y-113766666D01*
X123452380Y-113671428D01*
X123404761Y-113528571D01*
X123309523Y-113433333D01*
X123214285Y-113385714D01*
X123023809Y-113338095D01*
X122880952Y-113338095D01*
X122690476Y-113385714D01*
X122595238Y-113433333D01*
X122500000Y-113528571D01*
X122452380Y-113671428D01*
X122452380Y-113766666D01*
X122500000Y-113909523D01*
X122547619Y-113957142D01*
X123452380Y-114909523D02*
X123452380Y-114338095D01*
X123452380Y-114623809D02*
X122452380Y-114623809D01*
X122595238Y-114528571D01*
X122690476Y-114433333D01*
X122738095Y-114338095D01*
X122452380Y-115528571D02*
X122452380Y-115623809D01*
X122500000Y-115719047D01*
X122547619Y-115766666D01*
X122642857Y-115814285D01*
X122833333Y-115861904D01*
X123071428Y-115861904D01*
X123261904Y-115814285D01*
X123357142Y-115766666D01*
X123404761Y-115719047D01*
X123452380Y-115623809D01*
X123452380Y-115528571D01*
X123404761Y-115433333D01*
X123357142Y-115385714D01*
X123261904Y-115338095D01*
X123071428Y-115290476D01*
X122833333Y-115290476D01*
X122642857Y-115338095D01*
X122547619Y-115385714D01*
X122500000Y-115433333D01*
X122452380Y-115528571D01*
%TO.C,R5*%
X133852380Y-112833333D02*
X133376190Y-112500000D01*
X133852380Y-112261904D02*
X132852380Y-112261904D01*
X132852380Y-112642857D01*
X132900000Y-112738095D01*
X132947619Y-112785714D01*
X133042857Y-112833333D01*
X133185714Y-112833333D01*
X133280952Y-112785714D01*
X133328571Y-112738095D01*
X133376190Y-112642857D01*
X133376190Y-112261904D01*
X132852380Y-113738095D02*
X132852380Y-113261904D01*
X133328571Y-113214285D01*
X133280952Y-113261904D01*
X133233333Y-113357142D01*
X133233333Y-113595238D01*
X133280952Y-113690476D01*
X133328571Y-113738095D01*
X133423809Y-113785714D01*
X133661904Y-113785714D01*
X133757142Y-113738095D01*
X133804761Y-113690476D01*
X133852380Y-113595238D01*
X133852380Y-113357142D01*
X133804761Y-113261904D01*
X133757142Y-113214285D01*
%TO.C,C6*%
X116857142Y-109133333D02*
X116904761Y-109085714D01*
X116952380Y-108942857D01*
X116952380Y-108847619D01*
X116904761Y-108704761D01*
X116809523Y-108609523D01*
X116714285Y-108561904D01*
X116523809Y-108514285D01*
X116380952Y-108514285D01*
X116190476Y-108561904D01*
X116095238Y-108609523D01*
X116000000Y-108704761D01*
X115952380Y-108847619D01*
X115952380Y-108942857D01*
X116000000Y-109085714D01*
X116047619Y-109133333D01*
X115952380Y-109990476D02*
X115952380Y-109800000D01*
X116000000Y-109704761D01*
X116047619Y-109657142D01*
X116190476Y-109561904D01*
X116380952Y-109514285D01*
X116761904Y-109514285D01*
X116857142Y-109561904D01*
X116904761Y-109609523D01*
X116952380Y-109704761D01*
X116952380Y-109895238D01*
X116904761Y-109990476D01*
X116857142Y-110038095D01*
X116761904Y-110085714D01*
X116523809Y-110085714D01*
X116428571Y-110038095D01*
X116380952Y-109990476D01*
X116333333Y-109895238D01*
X116333333Y-109704761D01*
X116380952Y-109609523D01*
X116428571Y-109561904D01*
X116523809Y-109514285D01*
%TO.C,U3*%
X128852380Y-116238095D02*
X129661904Y-116238095D01*
X129757142Y-116285714D01*
X129804761Y-116333333D01*
X129852380Y-116428571D01*
X129852380Y-116619047D01*
X129804761Y-116714285D01*
X129757142Y-116761904D01*
X129661904Y-116809523D01*
X128852380Y-116809523D01*
X128852380Y-117190476D02*
X128852380Y-117809523D01*
X129233333Y-117476190D01*
X129233333Y-117619047D01*
X129280952Y-117714285D01*
X129328571Y-117761904D01*
X129423809Y-117809523D01*
X129661904Y-117809523D01*
X129757142Y-117761904D01*
X129804761Y-117714285D01*
X129852380Y-117619047D01*
X129852380Y-117333333D01*
X129804761Y-117238095D01*
X129757142Y-117190476D01*
%TO.C,U2*%
X131252380Y-126338095D02*
X132061904Y-126338095D01*
X132157142Y-126385714D01*
X132204761Y-126433333D01*
X132252380Y-126528571D01*
X132252380Y-126719047D01*
X132204761Y-126814285D01*
X132157142Y-126861904D01*
X132061904Y-126909523D01*
X131252380Y-126909523D01*
X131347619Y-127338095D02*
X131300000Y-127385714D01*
X131252380Y-127480952D01*
X131252380Y-127719047D01*
X131300000Y-127814285D01*
X131347619Y-127861904D01*
X131442857Y-127909523D01*
X131538095Y-127909523D01*
X131680952Y-127861904D01*
X132252380Y-127290476D01*
X132252380Y-127909523D01*
%TO.C,R10*%
X124052380Y-133557142D02*
X123576190Y-133223809D01*
X124052380Y-132985714D02*
X123052380Y-132985714D01*
X123052380Y-133366666D01*
X123100000Y-133461904D01*
X123147619Y-133509523D01*
X123242857Y-133557142D01*
X123385714Y-133557142D01*
X123480952Y-133509523D01*
X123528571Y-133461904D01*
X123576190Y-133366666D01*
X123576190Y-132985714D01*
X124052380Y-134509523D02*
X124052380Y-133938095D01*
X124052380Y-134223809D02*
X123052380Y-134223809D01*
X123195238Y-134128571D01*
X123290476Y-134033333D01*
X123338095Y-133938095D01*
X123052380Y-135128571D02*
X123052380Y-135223809D01*
X123100000Y-135319047D01*
X123147619Y-135366666D01*
X123242857Y-135414285D01*
X123433333Y-135461904D01*
X123671428Y-135461904D01*
X123861904Y-135414285D01*
X123957142Y-135366666D01*
X124004761Y-135319047D01*
X124052380Y-135223809D01*
X124052380Y-135128571D01*
X124004761Y-135033333D01*
X123957142Y-134985714D01*
X123861904Y-134938095D01*
X123671428Y-134890476D01*
X123433333Y-134890476D01*
X123242857Y-134938095D01*
X123147619Y-134985714D01*
X123100000Y-135033333D01*
X123052380Y-135128571D01*
%TO.C,R11*%
X124052380Y-122857142D02*
X123576190Y-122523809D01*
X124052380Y-122285714D02*
X123052380Y-122285714D01*
X123052380Y-122666666D01*
X123100000Y-122761904D01*
X123147619Y-122809523D01*
X123242857Y-122857142D01*
X123385714Y-122857142D01*
X123480952Y-122809523D01*
X123528571Y-122761904D01*
X123576190Y-122666666D01*
X123576190Y-122285714D01*
X124052380Y-123809523D02*
X124052380Y-123238095D01*
X124052380Y-123523809D02*
X123052380Y-123523809D01*
X123195238Y-123428571D01*
X123290476Y-123333333D01*
X123338095Y-123238095D01*
X124052380Y-124761904D02*
X124052380Y-124190476D01*
X124052380Y-124476190D02*
X123052380Y-124476190D01*
X123195238Y-124380952D01*
X123290476Y-124285714D01*
X123338095Y-124190476D01*
%TO.C,R4*%
X136952380Y-112833333D02*
X136476190Y-112500000D01*
X136952380Y-112261904D02*
X135952380Y-112261904D01*
X135952380Y-112642857D01*
X136000000Y-112738095D01*
X136047619Y-112785714D01*
X136142857Y-112833333D01*
X136285714Y-112833333D01*
X136380952Y-112785714D01*
X136428571Y-112738095D01*
X136476190Y-112642857D01*
X136476190Y-112261904D01*
X136285714Y-113690476D02*
X136952380Y-113690476D01*
X135904761Y-113452380D02*
X136619047Y-113214285D01*
X136619047Y-113833333D01*
%TO.C,R13*%
X139252380Y-116557142D02*
X138776190Y-116223809D01*
X139252380Y-115985714D02*
X138252380Y-115985714D01*
X138252380Y-116366666D01*
X138300000Y-116461904D01*
X138347619Y-116509523D01*
X138442857Y-116557142D01*
X138585714Y-116557142D01*
X138680952Y-116509523D01*
X138728571Y-116461904D01*
X138776190Y-116366666D01*
X138776190Y-115985714D01*
X139252380Y-117509523D02*
X139252380Y-116938095D01*
X139252380Y-117223809D02*
X138252380Y-117223809D01*
X138395238Y-117128571D01*
X138490476Y-117033333D01*
X138538095Y-116938095D01*
X138252380Y-117842857D02*
X138252380Y-118461904D01*
X138633333Y-118128571D01*
X138633333Y-118271428D01*
X138680952Y-118366666D01*
X138728571Y-118414285D01*
X138823809Y-118461904D01*
X139061904Y-118461904D01*
X139157142Y-118414285D01*
X139204761Y-118366666D01*
X139252380Y-118271428D01*
X139252380Y-117985714D01*
X139204761Y-117890476D01*
X139157142Y-117842857D01*
%TO.C,C2*%
X130257142Y-112833333D02*
X130304761Y-112785714D01*
X130352380Y-112642857D01*
X130352380Y-112547619D01*
X130304761Y-112404761D01*
X130209523Y-112309523D01*
X130114285Y-112261904D01*
X129923809Y-112214285D01*
X129780952Y-112214285D01*
X129590476Y-112261904D01*
X129495238Y-112309523D01*
X129400000Y-112404761D01*
X129352380Y-112547619D01*
X129352380Y-112642857D01*
X129400000Y-112785714D01*
X129447619Y-112833333D01*
X129447619Y-113214285D02*
X129400000Y-113261904D01*
X129352380Y-113357142D01*
X129352380Y-113595238D01*
X129400000Y-113690476D01*
X129447619Y-113738095D01*
X129542857Y-113785714D01*
X129638095Y-113785714D01*
X129780952Y-113738095D01*
X130352380Y-113166666D01*
X130352380Y-113785714D01*
%TO.C,C7*%
X126357142Y-123633333D02*
X126404761Y-123585714D01*
X126452380Y-123442857D01*
X126452380Y-123347619D01*
X126404761Y-123204761D01*
X126309523Y-123109523D01*
X126214285Y-123061904D01*
X126023809Y-123014285D01*
X125880952Y-123014285D01*
X125690476Y-123061904D01*
X125595238Y-123109523D01*
X125500000Y-123204761D01*
X125452380Y-123347619D01*
X125452380Y-123442857D01*
X125500000Y-123585714D01*
X125547619Y-123633333D01*
X125452380Y-123966666D02*
X125452380Y-124633333D01*
X126452380Y-124204761D01*
%TO.C,D3*%
X130152380Y-121861904D02*
X129152380Y-121861904D01*
X129152380Y-122100000D01*
X129200000Y-122242857D01*
X129295238Y-122338095D01*
X129390476Y-122385714D01*
X129580952Y-122433333D01*
X129723809Y-122433333D01*
X129914285Y-122385714D01*
X130009523Y-122338095D01*
X130104761Y-122242857D01*
X130152380Y-122100000D01*
X130152380Y-121861904D01*
X129152380Y-122766666D02*
X129152380Y-123385714D01*
X129533333Y-123052380D01*
X129533333Y-123195238D01*
X129580952Y-123290476D01*
X129628571Y-123338095D01*
X129723809Y-123385714D01*
X129961904Y-123385714D01*
X130057142Y-123338095D01*
X130104761Y-123290476D01*
X130152380Y-123195238D01*
X130152380Y-122909523D01*
X130104761Y-122814285D01*
X130057142Y-122766666D01*
%TO.C,Q1*%
X118597619Y-130842261D02*
X118550000Y-130747023D01*
X118454761Y-130651785D01*
X118311904Y-130508928D01*
X118264285Y-130413690D01*
X118264285Y-130318452D01*
X118502380Y-130366071D02*
X118454761Y-130270833D01*
X118359523Y-130175595D01*
X118169047Y-130127976D01*
X117835714Y-130127976D01*
X117645238Y-130175595D01*
X117550000Y-130270833D01*
X117502380Y-130366071D01*
X117502380Y-130556547D01*
X117550000Y-130651785D01*
X117645238Y-130747023D01*
X117835714Y-130794642D01*
X118169047Y-130794642D01*
X118359523Y-130747023D01*
X118454761Y-130651785D01*
X118502380Y-130556547D01*
X118502380Y-130366071D01*
X118502380Y-131747023D02*
X118502380Y-131175595D01*
X118502380Y-131461309D02*
X117502380Y-131461309D01*
X117645238Y-131366071D01*
X117740476Y-131270833D01*
X117788095Y-131175595D01*
%TO.C,C5*%
X108957142Y-110933333D02*
X109004761Y-110885714D01*
X109052380Y-110742857D01*
X109052380Y-110647619D01*
X109004761Y-110504761D01*
X108909523Y-110409523D01*
X108814285Y-110361904D01*
X108623809Y-110314285D01*
X108480952Y-110314285D01*
X108290476Y-110361904D01*
X108195238Y-110409523D01*
X108100000Y-110504761D01*
X108052380Y-110647619D01*
X108052380Y-110742857D01*
X108100000Y-110885714D01*
X108147619Y-110933333D01*
X108052380Y-111838095D02*
X108052380Y-111361904D01*
X108528571Y-111314285D01*
X108480952Y-111361904D01*
X108433333Y-111457142D01*
X108433333Y-111695238D01*
X108480952Y-111790476D01*
X108528571Y-111838095D01*
X108623809Y-111885714D01*
X108861904Y-111885714D01*
X108957142Y-111838095D01*
X109004761Y-111790476D01*
X109052380Y-111695238D01*
X109052380Y-111457142D01*
X109004761Y-111361904D01*
X108957142Y-111314285D01*
%TO.C,R3*%
X151852380Y-138833333D02*
X151376190Y-138500000D01*
X151852380Y-138261904D02*
X150852380Y-138261904D01*
X150852380Y-138642857D01*
X150900000Y-138738095D01*
X150947619Y-138785714D01*
X151042857Y-138833333D01*
X151185714Y-138833333D01*
X151280952Y-138785714D01*
X151328571Y-138738095D01*
X151376190Y-138642857D01*
X151376190Y-138261904D01*
X150852380Y-139166666D02*
X150852380Y-139785714D01*
X151233333Y-139452380D01*
X151233333Y-139595238D01*
X151280952Y-139690476D01*
X151328571Y-139738095D01*
X151423809Y-139785714D01*
X151661904Y-139785714D01*
X151757142Y-139738095D01*
X151804761Y-139690476D01*
X151852380Y-139595238D01*
X151852380Y-139309523D01*
X151804761Y-139214285D01*
X151757142Y-139166666D01*
%TO.C,R8*%
X124452380Y-110633333D02*
X123976190Y-110300000D01*
X124452380Y-110061904D02*
X123452380Y-110061904D01*
X123452380Y-110442857D01*
X123500000Y-110538095D01*
X123547619Y-110585714D01*
X123642857Y-110633333D01*
X123785714Y-110633333D01*
X123880952Y-110585714D01*
X123928571Y-110538095D01*
X123976190Y-110442857D01*
X123976190Y-110061904D01*
X123880952Y-111204761D02*
X123833333Y-111109523D01*
X123785714Y-111061904D01*
X123690476Y-111014285D01*
X123642857Y-111014285D01*
X123547619Y-111061904D01*
X123500000Y-111109523D01*
X123452380Y-111204761D01*
X123452380Y-111395238D01*
X123500000Y-111490476D01*
X123547619Y-111538095D01*
X123642857Y-111585714D01*
X123690476Y-111585714D01*
X123785714Y-111538095D01*
X123833333Y-111490476D01*
X123880952Y-111395238D01*
X123880952Y-111204761D01*
X123928571Y-111109523D01*
X123976190Y-111061904D01*
X124071428Y-111014285D01*
X124261904Y-111014285D01*
X124357142Y-111061904D01*
X124404761Y-111109523D01*
X124452380Y-111204761D01*
X124452380Y-111395238D01*
X124404761Y-111490476D01*
X124357142Y-111538095D01*
X124261904Y-111585714D01*
X124071428Y-111585714D01*
X123976190Y-111538095D01*
X123928571Y-111490476D01*
X123880952Y-111395238D01*
%TO.C,Q2*%
X118597619Y-126404761D02*
X118550000Y-126309523D01*
X118454761Y-126214285D01*
X118311904Y-126071428D01*
X118264285Y-125976190D01*
X118264285Y-125880952D01*
X118502380Y-125928571D02*
X118454761Y-125833333D01*
X118359523Y-125738095D01*
X118169047Y-125690476D01*
X117835714Y-125690476D01*
X117645238Y-125738095D01*
X117550000Y-125833333D01*
X117502380Y-125928571D01*
X117502380Y-126119047D01*
X117550000Y-126214285D01*
X117645238Y-126309523D01*
X117835714Y-126357142D01*
X118169047Y-126357142D01*
X118359523Y-126309523D01*
X118454761Y-126214285D01*
X118502380Y-126119047D01*
X118502380Y-125928571D01*
X117597619Y-126738095D02*
X117550000Y-126785714D01*
X117502380Y-126880952D01*
X117502380Y-127119047D01*
X117550000Y-127214285D01*
X117597619Y-127261904D01*
X117692857Y-127309523D01*
X117788095Y-127309523D01*
X117930952Y-127261904D01*
X118502380Y-126690476D01*
X118502380Y-127309523D01*
%TO.C,C8*%
X111857142Y-125333333D02*
X111904761Y-125285714D01*
X111952380Y-125142857D01*
X111952380Y-125047619D01*
X111904761Y-124904761D01*
X111809523Y-124809523D01*
X111714285Y-124761904D01*
X111523809Y-124714285D01*
X111380952Y-124714285D01*
X111190476Y-124761904D01*
X111095238Y-124809523D01*
X111000000Y-124904761D01*
X110952380Y-125047619D01*
X110952380Y-125142857D01*
X111000000Y-125285714D01*
X111047619Y-125333333D01*
X111380952Y-125904761D02*
X111333333Y-125809523D01*
X111285714Y-125761904D01*
X111190476Y-125714285D01*
X111142857Y-125714285D01*
X111047619Y-125761904D01*
X111000000Y-125809523D01*
X110952380Y-125904761D01*
X110952380Y-126095238D01*
X111000000Y-126190476D01*
X111047619Y-126238095D01*
X111142857Y-126285714D01*
X111190476Y-126285714D01*
X111285714Y-126238095D01*
X111333333Y-126190476D01*
X111380952Y-126095238D01*
X111380952Y-125904761D01*
X111428571Y-125809523D01*
X111476190Y-125761904D01*
X111571428Y-125714285D01*
X111761904Y-125714285D01*
X111857142Y-125761904D01*
X111904761Y-125809523D01*
X111952380Y-125904761D01*
X111952380Y-126095238D01*
X111904761Y-126190476D01*
X111857142Y-126238095D01*
X111761904Y-126285714D01*
X111571428Y-126285714D01*
X111476190Y-126238095D01*
X111428571Y-126190476D01*
X111380952Y-126095238D01*
%TO.C,R12*%
X132152380Y-120557142D02*
X131676190Y-120223809D01*
X132152380Y-119985714D02*
X131152380Y-119985714D01*
X131152380Y-120366666D01*
X131200000Y-120461904D01*
X131247619Y-120509523D01*
X131342857Y-120557142D01*
X131485714Y-120557142D01*
X131580952Y-120509523D01*
X131628571Y-120461904D01*
X131676190Y-120366666D01*
X131676190Y-119985714D01*
X132152380Y-121509523D02*
X132152380Y-120938095D01*
X132152380Y-121223809D02*
X131152380Y-121223809D01*
X131295238Y-121128571D01*
X131390476Y-121033333D01*
X131438095Y-120938095D01*
X131247619Y-121890476D02*
X131200000Y-121938095D01*
X131152380Y-122033333D01*
X131152380Y-122271428D01*
X131200000Y-122366666D01*
X131247619Y-122414285D01*
X131342857Y-122461904D01*
X131438095Y-122461904D01*
X131580952Y-122414285D01*
X132152380Y-121842857D01*
X132152380Y-122461904D01*
%TO.C,C9*%
X126457142Y-133633333D02*
X126504761Y-133585714D01*
X126552380Y-133442857D01*
X126552380Y-133347619D01*
X126504761Y-133204761D01*
X126409523Y-133109523D01*
X126314285Y-133061904D01*
X126123809Y-133014285D01*
X125980952Y-133014285D01*
X125790476Y-133061904D01*
X125695238Y-133109523D01*
X125600000Y-133204761D01*
X125552380Y-133347619D01*
X125552380Y-133442857D01*
X125600000Y-133585714D01*
X125647619Y-133633333D01*
X126552380Y-134109523D02*
X126552380Y-134300000D01*
X126504761Y-134395238D01*
X126457142Y-134442857D01*
X126314285Y-134538095D01*
X126123809Y-134585714D01*
X125742857Y-134585714D01*
X125647619Y-134538095D01*
X125600000Y-134490476D01*
X125552380Y-134395238D01*
X125552380Y-134204761D01*
X125600000Y-134109523D01*
X125647619Y-134061904D01*
X125742857Y-134014285D01*
X125980952Y-134014285D01*
X126076190Y-134061904D01*
X126123809Y-134109523D01*
X126171428Y-134204761D01*
X126171428Y-134395238D01*
X126123809Y-134490476D01*
X126076190Y-134538095D01*
X125980952Y-134585714D01*
%TO.C,C1*%
X124557142Y-120833333D02*
X124604761Y-120785714D01*
X124652380Y-120642857D01*
X124652380Y-120547619D01*
X124604761Y-120404761D01*
X124509523Y-120309523D01*
X124414285Y-120261904D01*
X124223809Y-120214285D01*
X124080952Y-120214285D01*
X123890476Y-120261904D01*
X123795238Y-120309523D01*
X123700000Y-120404761D01*
X123652380Y-120547619D01*
X123652380Y-120642857D01*
X123700000Y-120785714D01*
X123747619Y-120833333D01*
X124652380Y-121785714D02*
X124652380Y-121214285D01*
X124652380Y-121500000D02*
X123652380Y-121500000D01*
X123795238Y-121404761D01*
X123890476Y-121309523D01*
X123938095Y-121214285D01*
%TO.C,R2*%
X154852380Y-138833333D02*
X154376190Y-138500000D01*
X154852380Y-138261904D02*
X153852380Y-138261904D01*
X153852380Y-138642857D01*
X153900000Y-138738095D01*
X153947619Y-138785714D01*
X154042857Y-138833333D01*
X154185714Y-138833333D01*
X154280952Y-138785714D01*
X154328571Y-138738095D01*
X154376190Y-138642857D01*
X154376190Y-138261904D01*
X153947619Y-139214285D02*
X153900000Y-139261904D01*
X153852380Y-139357142D01*
X153852380Y-139595238D01*
X153900000Y-139690476D01*
X153947619Y-139738095D01*
X154042857Y-139785714D01*
X154138095Y-139785714D01*
X154280952Y-139738095D01*
X154852380Y-139166666D01*
X154852380Y-139785714D01*
%TO.C,C11*%
X127057142Y-110057142D02*
X127104761Y-110009523D01*
X127152380Y-109866666D01*
X127152380Y-109771428D01*
X127104761Y-109628571D01*
X127009523Y-109533333D01*
X126914285Y-109485714D01*
X126723809Y-109438095D01*
X126580952Y-109438095D01*
X126390476Y-109485714D01*
X126295238Y-109533333D01*
X126200000Y-109628571D01*
X126152380Y-109771428D01*
X126152380Y-109866666D01*
X126200000Y-110009523D01*
X126247619Y-110057142D01*
X127152380Y-111009523D02*
X127152380Y-110438095D01*
X127152380Y-110723809D02*
X126152380Y-110723809D01*
X126295238Y-110628571D01*
X126390476Y-110533333D01*
X126438095Y-110438095D01*
X127152380Y-111961904D02*
X127152380Y-111390476D01*
X127152380Y-111676190D02*
X126152380Y-111676190D01*
X126295238Y-111580952D01*
X126390476Y-111485714D01*
X126438095Y-111390476D01*
%TO.C,R7*%
X129052380Y-110633333D02*
X128576190Y-110300000D01*
X129052380Y-110061904D02*
X128052380Y-110061904D01*
X128052380Y-110442857D01*
X128100000Y-110538095D01*
X128147619Y-110585714D01*
X128242857Y-110633333D01*
X128385714Y-110633333D01*
X128480952Y-110585714D01*
X128528571Y-110538095D01*
X128576190Y-110442857D01*
X128576190Y-110061904D01*
X128052380Y-110966666D02*
X128052380Y-111633333D01*
X129052380Y-111204761D01*
%TO.C,Q4*%
X139547619Y-121654761D02*
X139500000Y-121559523D01*
X139404761Y-121464285D01*
X139261904Y-121321428D01*
X139214285Y-121226190D01*
X139214285Y-121130952D01*
X139452380Y-121178571D02*
X139404761Y-121083333D01*
X139309523Y-120988095D01*
X139119047Y-120940476D01*
X138785714Y-120940476D01*
X138595238Y-120988095D01*
X138500000Y-121083333D01*
X138452380Y-121178571D01*
X138452380Y-121369047D01*
X138500000Y-121464285D01*
X138595238Y-121559523D01*
X138785714Y-121607142D01*
X139119047Y-121607142D01*
X139309523Y-121559523D01*
X139404761Y-121464285D01*
X139452380Y-121369047D01*
X139452380Y-121178571D01*
X138785714Y-122464285D02*
X139452380Y-122464285D01*
X138404761Y-122226190D02*
X139119047Y-121988095D01*
X139119047Y-122607142D01*
%TO.C,Q3*%
X139147619Y-107904761D02*
X139100000Y-107809523D01*
X139004761Y-107714285D01*
X138861904Y-107571428D01*
X138814285Y-107476190D01*
X138814285Y-107380952D01*
X139052380Y-107428571D02*
X139004761Y-107333333D01*
X138909523Y-107238095D01*
X138719047Y-107190476D01*
X138385714Y-107190476D01*
X138195238Y-107238095D01*
X138100000Y-107333333D01*
X138052380Y-107428571D01*
X138052380Y-107619047D01*
X138100000Y-107714285D01*
X138195238Y-107809523D01*
X138385714Y-107857142D01*
X138719047Y-107857142D01*
X138909523Y-107809523D01*
X139004761Y-107714285D01*
X139052380Y-107619047D01*
X139052380Y-107428571D01*
X138052380Y-108190476D02*
X138052380Y-108809523D01*
X138433333Y-108476190D01*
X138433333Y-108619047D01*
X138480952Y-108714285D01*
X138528571Y-108761904D01*
X138623809Y-108809523D01*
X138861904Y-108809523D01*
X138957142Y-108761904D01*
X139004761Y-108714285D01*
X139052380Y-108619047D01*
X139052380Y-108333333D01*
X139004761Y-108238095D01*
X138957142Y-108190476D01*
%TO.C,R6*%
X132852380Y-110633333D02*
X132376190Y-110300000D01*
X132852380Y-110061904D02*
X131852380Y-110061904D01*
X131852380Y-110442857D01*
X131900000Y-110538095D01*
X131947619Y-110585714D01*
X132042857Y-110633333D01*
X132185714Y-110633333D01*
X132280952Y-110585714D01*
X132328571Y-110538095D01*
X132376190Y-110442857D01*
X132376190Y-110061904D01*
X131852380Y-111490476D02*
X131852380Y-111300000D01*
X131900000Y-111204761D01*
X131947619Y-111157142D01*
X132090476Y-111061904D01*
X132280952Y-111014285D01*
X132661904Y-111014285D01*
X132757142Y-111061904D01*
X132804761Y-111109523D01*
X132852380Y-111204761D01*
X132852380Y-111395238D01*
X132804761Y-111490476D01*
X132757142Y-111538095D01*
X132661904Y-111585714D01*
X132423809Y-111585714D01*
X132328571Y-111538095D01*
X132280952Y-111490476D01*
X132233333Y-111395238D01*
X132233333Y-111204761D01*
X132280952Y-111109523D01*
X132328571Y-111061904D01*
X132423809Y-111014285D01*
%TO.C,D2*%
X151652380Y-144061904D02*
X150652380Y-144061904D01*
X150652380Y-144300000D01*
X150700000Y-144442857D01*
X150795238Y-144538095D01*
X150890476Y-144585714D01*
X151080952Y-144633333D01*
X151223809Y-144633333D01*
X151414285Y-144585714D01*
X151509523Y-144538095D01*
X151604761Y-144442857D01*
X151652380Y-144300000D01*
X151652380Y-144061904D01*
X150747619Y-145014285D02*
X150700000Y-145061904D01*
X150652380Y-145157142D01*
X150652380Y-145395238D01*
X150700000Y-145490476D01*
X150747619Y-145538095D01*
X150842857Y-145585714D01*
X150938095Y-145585714D01*
X151080952Y-145538095D01*
X151652380Y-144966666D01*
X151652380Y-145585714D01*
%TO.C,Q5*%
X129947619Y-133104761D02*
X129900000Y-133009523D01*
X129804761Y-132914285D01*
X129661904Y-132771428D01*
X129614285Y-132676190D01*
X129614285Y-132580952D01*
X129852380Y-132628571D02*
X129804761Y-132533333D01*
X129709523Y-132438095D01*
X129519047Y-132390476D01*
X129185714Y-132390476D01*
X128995238Y-132438095D01*
X128900000Y-132533333D01*
X128852380Y-132628571D01*
X128852380Y-132819047D01*
X128900000Y-132914285D01*
X128995238Y-133009523D01*
X129185714Y-133057142D01*
X129519047Y-133057142D01*
X129709523Y-133009523D01*
X129804761Y-132914285D01*
X129852380Y-132819047D01*
X129852380Y-132628571D01*
X128852380Y-133961904D02*
X128852380Y-133485714D01*
X129328571Y-133438095D01*
X129280952Y-133485714D01*
X129233333Y-133580952D01*
X129233333Y-133819047D01*
X129280952Y-133914285D01*
X129328571Y-133961904D01*
X129423809Y-134009523D01*
X129661904Y-134009523D01*
X129757142Y-133961904D01*
X129804761Y-133914285D01*
X129852380Y-133819047D01*
X129852380Y-133580952D01*
X129804761Y-133485714D01*
X129757142Y-133438095D01*
%TO.C,R9*%
X139502380Y-126733333D02*
X139026190Y-126400000D01*
X139502380Y-126161904D02*
X138502380Y-126161904D01*
X138502380Y-126542857D01*
X138550000Y-126638095D01*
X138597619Y-126685714D01*
X138692857Y-126733333D01*
X138835714Y-126733333D01*
X138930952Y-126685714D01*
X138978571Y-126638095D01*
X139026190Y-126542857D01*
X139026190Y-126161904D01*
X139502380Y-127209523D02*
X139502380Y-127400000D01*
X139454761Y-127495238D01*
X139407142Y-127542857D01*
X139264285Y-127638095D01*
X139073809Y-127685714D01*
X138692857Y-127685714D01*
X138597619Y-127638095D01*
X138550000Y-127590476D01*
X138502380Y-127495238D01*
X138502380Y-127304761D01*
X138550000Y-127209523D01*
X138597619Y-127161904D01*
X138692857Y-127114285D01*
X138930952Y-127114285D01*
X139026190Y-127161904D01*
X139073809Y-127209523D01*
X139121428Y-127304761D01*
X139121428Y-127495238D01*
X139073809Y-127590476D01*
X139026190Y-127638095D01*
X138930952Y-127685714D01*
%TO.C,C3*%
X105077142Y-114495833D02*
X105124761Y-114448214D01*
X105172380Y-114305357D01*
X105172380Y-114210119D01*
X105124761Y-114067261D01*
X105029523Y-113972023D01*
X104934285Y-113924404D01*
X104743809Y-113876785D01*
X104600952Y-113876785D01*
X104410476Y-113924404D01*
X104315238Y-113972023D01*
X104220000Y-114067261D01*
X104172380Y-114210119D01*
X104172380Y-114305357D01*
X104220000Y-114448214D01*
X104267619Y-114495833D01*
X104172380Y-114829166D02*
X104172380Y-115448214D01*
X104553333Y-115114880D01*
X104553333Y-115257738D01*
X104600952Y-115352976D01*
X104648571Y-115400595D01*
X104743809Y-115448214D01*
X104981904Y-115448214D01*
X105077142Y-115400595D01*
X105124761Y-115352976D01*
X105172380Y-115257738D01*
X105172380Y-114972023D01*
X105124761Y-114876785D01*
X105077142Y-114829166D01*
D11*
%TO.C,R14*%
X105510000Y-110463064D02*
X105510000Y-110008936D01*
X104040000Y-110463064D02*
X104040000Y-110008936D01*
%TO.C,JCARD1*%
X101690000Y-140875000D02*
X101690000Y-134505000D01*
X103575000Y-143900000D02*
X101775000Y-143900000D01*
X101340000Y-142945000D02*
X101340000Y-141085000D01*
X101340000Y-142945000D02*
X101540000Y-143145000D01*
X101690000Y-140875000D02*
X101540000Y-140875000D01*
X109575000Y-143900000D02*
X104875000Y-143900000D01*
X101540000Y-131485000D02*
X101540000Y-131225000D01*
X101340000Y-131685000D02*
X101340000Y-133995000D01*
X114900000Y-133200000D02*
X114900000Y-130275000D01*
X114905000Y-143900000D02*
X111295000Y-143900000D01*
X101340000Y-131685000D02*
X101540000Y-131485000D01*
X101340000Y-141085000D02*
X101540000Y-140875000D01*
X112800000Y-129100000D02*
X100875000Y-129100000D01*
X101340000Y-133995000D02*
X101690000Y-134505000D01*
D10*
%TO.C,U1*%
X109825000Y-122175000D02*
X109825000Y-121600000D01*
X120175000Y-111825000D02*
X119500000Y-111825000D01*
X109825000Y-122175000D02*
X110500000Y-122175000D01*
X109825000Y-111825000D02*
X109825000Y-112500000D01*
X120175000Y-111825000D02*
X120175000Y-112500000D01*
X120175000Y-122175000D02*
X119500000Y-122175000D01*
X109825000Y-111825000D02*
X110500000Y-111825000D01*
X109825000Y-121600000D02*
X108550000Y-121600000D01*
X120175000Y-122175000D02*
X120175000Y-121500000D01*
D11*
%TO.C,R1*%
X132435000Y-116272936D02*
X132435000Y-116727064D01*
X130965000Y-116272936D02*
X130965000Y-116727064D01*
%TO.C,JCASE2*%
X103600000Y-125500000D02*
X106000000Y-125500000D01*
X106000000Y-125500000D02*
X106000000Y-123100000D01*
X103600000Y-123100000D02*
X103600000Y-125500000D01*
X106000000Y-123100000D02*
X103600000Y-123100000D01*
%TO.C,C10*%
X122490000Y-117466233D02*
X122490000Y-117758767D01*
X123510000Y-117466233D02*
X123510000Y-117758767D01*
%TO.C,R5*%
X134265000Y-112772936D02*
X134265000Y-113227064D01*
X135735000Y-112772936D02*
X135735000Y-113227064D01*
%TO.C,C6*%
X114283767Y-108490000D02*
X113991233Y-108490000D01*
X114283767Y-109510000D02*
X113991233Y-109510000D01*
%TO.C,U3*%
X128560000Y-117000000D02*
X128560000Y-118800000D01*
X128560000Y-117000000D02*
X128560000Y-116200000D01*
X125440000Y-117000000D02*
X125440000Y-116200000D01*
X125440000Y-117000000D02*
X125440000Y-117800000D01*
%TO.C,U2*%
X135660000Y-127000000D02*
X135660000Y-126200000D01*
X135660000Y-127000000D02*
X135660000Y-128800000D01*
X132540000Y-127000000D02*
X132540000Y-126200000D01*
X132540000Y-127000000D02*
X132540000Y-127800000D01*
%TO.C,R10*%
X124235000Y-131227064D02*
X124235000Y-130772936D01*
X122765000Y-131227064D02*
X122765000Y-130772936D01*
%TO.C,R11*%
X124235000Y-126272936D02*
X124235000Y-126727064D01*
X122765000Y-126272936D02*
X122765000Y-126727064D01*
%TO.C,R4*%
X138735000Y-113227064D02*
X138735000Y-112772936D01*
X137265000Y-113227064D02*
X137265000Y-112772936D01*
%TO.C,R13*%
X136327064Y-116365000D02*
X135872936Y-116365000D01*
X136327064Y-117835000D02*
X135872936Y-117835000D01*
%TO.C,C2*%
X127261252Y-112265000D02*
X126738748Y-112265000D01*
X127261252Y-113735000D02*
X126738748Y-113735000D01*
%TO.C,JBAT2*%
X135550000Y-132950000D02*
X137950000Y-132950000D01*
X135550000Y-130550000D02*
X135550000Y-132950000D01*
X137950000Y-132950000D02*
X137950000Y-130550000D01*
X137950000Y-130550000D02*
X135550000Y-130550000D01*
%TO.C,C7*%
X125490000Y-126783767D02*
X125490000Y-126491233D01*
X126510000Y-126783767D02*
X126510000Y-126491233D01*
%TO.C,D3*%
X127740000Y-125500000D02*
X127740000Y-126150000D01*
X130860000Y-125500000D02*
X130860000Y-126150000D01*
X130860000Y-125500000D02*
X130860000Y-124850000D01*
X127740000Y-125500000D02*
X127740000Y-123825000D01*
%TO.C,JBAT1*%
X132300000Y-132950000D02*
X134700000Y-132950000D01*
X132300000Y-130550000D02*
X132300000Y-132950000D01*
X134700000Y-130550000D02*
X132300000Y-130550000D01*
X134700000Y-132950000D02*
X134700000Y-130550000D01*
%TO.C,Q1*%
X122010000Y-130937500D02*
X122010000Y-130287500D01*
X118890000Y-130937500D02*
X118890000Y-131587500D01*
X122010000Y-130937500D02*
X122010000Y-131587500D01*
X118890000Y-130937500D02*
X118890000Y-129262500D01*
%TO.C,C5*%
X107710000Y-110946267D02*
X107710000Y-110653733D01*
X106690000Y-110946267D02*
X106690000Y-110653733D01*
%TO.C,R3*%
X152065000Y-138872936D02*
X152065000Y-139327064D01*
X153535000Y-138872936D02*
X153535000Y-139327064D01*
%TO.C,R8*%
X124735000Y-108227064D02*
X124735000Y-107772936D01*
X123265000Y-108227064D02*
X123265000Y-107772936D01*
%TO.C,Q2*%
X122010000Y-126500000D02*
X122010000Y-127150000D01*
X118890000Y-126500000D02*
X118890000Y-127150000D01*
X122010000Y-126500000D02*
X122010000Y-125850000D01*
X118890000Y-126500000D02*
X118890000Y-124825000D01*
%TO.C,C8*%
X114146267Y-124990000D02*
X113853733Y-124990000D01*
X114146267Y-126010000D02*
X113853733Y-126010000D01*
%TO.C,R12*%
X134035000Y-121977064D02*
X134035000Y-121522936D01*
X132565000Y-121977064D02*
X132565000Y-121522936D01*
%TO.C,C9*%
X126510000Y-131283767D02*
X126510000Y-130991233D01*
X125490000Y-131283767D02*
X125490000Y-130991233D01*
%TO.C,C1*%
X127261252Y-121735000D02*
X126738748Y-121735000D01*
X127261252Y-120265000D02*
X126738748Y-120265000D01*
%TO.C,R2*%
X155065000Y-139327064D02*
X155065000Y-138872936D01*
X156535000Y-139327064D02*
X156535000Y-138872936D01*
%TO.C,JCASE1*%
X109600000Y-123100000D02*
X107200000Y-123100000D01*
X109600000Y-125500000D02*
X109600000Y-123100000D01*
X107200000Y-123100000D02*
X107200000Y-125500000D01*
X107200000Y-125500000D02*
X109600000Y-125500000D01*
%TO.C,C11*%
X126760000Y-107741233D02*
X126760000Y-108033767D01*
X125740000Y-107741233D02*
X125740000Y-108033767D01*
%TO.C,R7*%
X129235000Y-108227064D02*
X129235000Y-107772936D01*
X127765000Y-108227064D02*
X127765000Y-107772936D01*
%TO.C,Q4*%
X134940000Y-121750000D02*
X134940000Y-120075000D01*
X138060000Y-121750000D02*
X138060000Y-121100000D01*
X138060000Y-121750000D02*
X138060000Y-122400000D01*
X134940000Y-121750000D02*
X134940000Y-122400000D01*
%TO.C,Q3*%
X136000000Y-106440000D02*
X137675000Y-106440000D01*
X136000000Y-106440000D02*
X135350000Y-106440000D01*
X136000000Y-109560000D02*
X136650000Y-109560000D01*
X136000000Y-109560000D02*
X135350000Y-109560000D01*
%TO.C,R6*%
X133235000Y-108227064D02*
X133235000Y-107772936D01*
X131765000Y-108227064D02*
X131765000Y-107772936D01*
%TO.C,D2*%
X152700000Y-143865000D02*
X156760000Y-143865000D01*
X156760000Y-146135000D02*
X152700000Y-146135000D01*
X156760000Y-143865000D02*
X156760000Y-146135000D01*
%TO.C,Q5*%
X130860000Y-130300000D02*
X130860000Y-130950000D01*
X130860000Y-130300000D02*
X130860000Y-129650000D01*
X127740000Y-130300000D02*
X127740000Y-130950000D01*
X127740000Y-130300000D02*
X127740000Y-128625000D01*
%TO.C,R9*%
X136565000Y-127227064D02*
X136565000Y-126772936D01*
X138035000Y-127227064D02*
X138035000Y-126772936D01*
%TO.C,C3*%
X105665000Y-114401248D02*
X105665000Y-114923752D01*
X107135000Y-114401248D02*
X107135000Y-114923752D01*
%TD*%
M02*
