%TF.GenerationSoftware,KiCad,Pcbnew,(6.0.9)*%
%TF.CreationDate,2023-11-17T13:22:31+01:00*%
%TF.ProjectId,datakeyboard,64617461-6b65-4796-926f-6172642e6b69,2*%
%TF.SameCoordinates,Original*%
%TF.FileFunction,Copper,L2,Bot*%
%TF.FilePolarity,Positive*%
%FSLAX46Y46*%
G04 Gerber Fmt 4.6, Leading zero omitted, Abs format (unit mm)*
G04 Created by KiCad (PCBNEW (6.0.9)) date 2023-11-17 13:22:31*
%MOMM*%
%LPD*%
G01*
G04 APERTURE LIST*
G04 Aperture macros list*
%AMRoundRect*
0 Rectangle with rounded corners*
0 $1 Rounding radius*
0 $2 $3 $4 $5 $6 $7 $8 $9 X,Y pos of 4 corners*
0 Add a 4 corners polygon primitive as box body*
4,1,4,$2,$3,$4,$5,$6,$7,$8,$9,$2,$3,0*
0 Add four circle primitives for the rounded corners*
1,1,$1+$1,$2,$3*
1,1,$1+$1,$4,$5*
1,1,$1+$1,$6,$7*
1,1,$1+$1,$8,$9*
0 Add four rect primitives between the rounded corners*
20,1,$1+$1,$2,$3,$4,$5,0*
20,1,$1+$1,$4,$5,$6,$7,0*
20,1,$1+$1,$6,$7,$8,$9,0*
20,1,$1+$1,$8,$9,$2,$3,0*%
G04 Aperture macros list end*
%TA.AperFunction,SMDPad,CuDef*%
%ADD10RoundRect,0.250000X0.450000X-0.350000X0.450000X0.350000X-0.450000X0.350000X-0.450000X-0.350000X0*%
%TD*%
%TA.AperFunction,ComponentPad*%
%ADD11R,1.700000X1.700000*%
%TD*%
%TA.AperFunction,ComponentPad*%
%ADD12O,1.700000X1.700000*%
%TD*%
%TA.AperFunction,ComponentPad*%
%ADD13C,2.000000*%
%TD*%
%TA.AperFunction,ComponentPad*%
%ADD14C,1.800000*%
%TD*%
%TA.AperFunction,ComponentPad*%
%ADD15C,1.500000*%
%TD*%
%TA.AperFunction,SMDPad,CuDef*%
%ADD16R,1.200000X0.700000*%
%TD*%
%TA.AperFunction,SMDPad,CuDef*%
%ADD17R,2.000000X1.000000*%
%TD*%
%TA.AperFunction,SMDPad,CuDef*%
%ADD18R,2.800000X1.000000*%
%TD*%
%TA.AperFunction,SMDPad,CuDef*%
%ADD19R,1.500000X0.550000*%
%TD*%
%TA.AperFunction,SMDPad,CuDef*%
%ADD20R,0.550000X1.500000*%
%TD*%
%TA.AperFunction,SMDPad,CuDef*%
%ADD21RoundRect,0.250000X-0.450000X0.350000X-0.450000X-0.350000X0.450000X-0.350000X0.450000X0.350000X0*%
%TD*%
%TA.AperFunction,SMDPad,CuDef*%
%ADD22R,2.000000X2.000000*%
%TD*%
%TA.AperFunction,SMDPad,CuDef*%
%ADD23RoundRect,0.237500X-0.237500X0.300000X-0.237500X-0.300000X0.237500X-0.300000X0.237500X0.300000X0*%
%TD*%
%TA.AperFunction,SMDPad,CuDef*%
%ADD24RoundRect,0.237500X0.300000X0.237500X-0.300000X0.237500X-0.300000X-0.237500X0.300000X-0.237500X0*%
%TD*%
%TA.AperFunction,SMDPad,CuDef*%
%ADD25RoundRect,0.150000X0.150000X-0.512500X0.150000X0.512500X-0.150000X0.512500X-0.150000X-0.512500X0*%
%TD*%
%TA.AperFunction,SMDPad,CuDef*%
%ADD26RoundRect,0.250000X0.350000X0.450000X-0.350000X0.450000X-0.350000X-0.450000X0.350000X-0.450000X0*%
%TD*%
%TA.AperFunction,SMDPad,CuDef*%
%ADD27RoundRect,0.250000X0.337500X0.475000X-0.337500X0.475000X-0.337500X-0.475000X0.337500X-0.475000X0*%
%TD*%
%TA.AperFunction,SMDPad,CuDef*%
%ADD28RoundRect,0.237500X0.237500X-0.300000X0.237500X0.300000X-0.237500X0.300000X-0.237500X-0.300000X0*%
%TD*%
%TA.AperFunction,SMDPad,CuDef*%
%ADD29RoundRect,0.150000X-0.150000X0.587500X-0.150000X-0.587500X0.150000X-0.587500X0.150000X0.587500X0*%
%TD*%
%TA.AperFunction,SMDPad,CuDef*%
%ADD30RoundRect,0.150000X0.587500X0.150000X-0.587500X0.150000X-0.587500X-0.150000X0.587500X-0.150000X0*%
%TD*%
%TA.AperFunction,SMDPad,CuDef*%
%ADD31RoundRect,0.250001X0.462499X0.624999X-0.462499X0.624999X-0.462499X-0.624999X0.462499X-0.624999X0*%
%TD*%
%TA.AperFunction,SMDPad,CuDef*%
%ADD32RoundRect,0.250000X-0.475000X0.337500X-0.475000X-0.337500X0.475000X-0.337500X0.475000X0.337500X0*%
%TD*%
%TA.AperFunction,ViaPad*%
%ADD33C,0.600000*%
%TD*%
%TA.AperFunction,ViaPad*%
%ADD34C,0.800000*%
%TD*%
%TA.AperFunction,Conductor*%
%ADD35C,0.250000*%
%TD*%
%TA.AperFunction,Conductor*%
%ADD36C,0.500000*%
%TD*%
G04 APERTURE END LIST*
D10*
%TO.P,R14,1*%
%TO.N,+3V0*%
X104775000Y-111236000D03*
%TO.P,R14,2*%
%TO.N,/CASE*%
X104775000Y-109236000D03*
%TD*%
D11*
%TO.P,JDISP1,1,Pin_1*%
%TO.N,GND*%
X102000000Y-125820000D03*
D12*
%TO.P,JDISP1,2,Pin_2*%
%TO.N,/VPER*%
X102000000Y-123280000D03*
%TO.P,JDISP1,3,Pin_3*%
%TO.N,/SCLK*%
X102000000Y-120740000D03*
%TO.P,JDISP1,4,Pin_4*%
%TO.N,/MOSI*%
X102000000Y-118200000D03*
%TO.P,JDISP1,5,Pin_5*%
%TO.N,/RES_D*%
X102000000Y-115660000D03*
%TO.P,JDISP1,6,Pin_6*%
%TO.N,/RS_D*%
X102000000Y-113120000D03*
%TO.P,JDISP1,7,Pin_7*%
%TO.N,/CS_D*%
X102000000Y-110580000D03*
%TO.P,JDISP1,8,Pin_8*%
%TO.N,/LEDA*%
X102000000Y-108040000D03*
%TD*%
D13*
%TO.P,JUSB1,6,Shield*%
%TO.N,GND*%
X152395000Y-134775000D03*
D14*
X156195000Y-134625000D03*
X156195000Y-142375000D03*
D13*
X152395000Y-142225000D03*
%TD*%
D11*
%TO.P,JPICKKIT1,1,Pin_1*%
%TO.N,/RESET*%
X120350000Y-107000000D03*
D12*
%TO.P,JPICKKIT1,2,Pin_2*%
%TO.N,+3V0*%
X117810000Y-107000000D03*
%TO.P,JPICKKIT1,3,Pin_3*%
%TO.N,GND*%
X115270000Y-107000000D03*
%TO.P,JPICKKIT1,4,Pin_4*%
%TO.N,Net-(JPICKKIT1-Pad4)*%
X112730000Y-107000000D03*
%TO.P,JPICKKIT1,5,Pin_5*%
%TO.N,Net-(JPICKKIT1-Pad5)*%
X110190000Y-107000000D03*
%TO.P,JPICKKIT1,6,Pin_6*%
%TO.N,unconnected-(JPICKKIT1-Pad6)*%
X107650000Y-107000000D03*
%TD*%
D15*
%TO.P,JCARD1,*%
%TO.N,*%
X104500000Y-141500000D03*
X104500000Y-133500000D03*
D16*
%TO.P,JCARD1,1,DAT2*%
%TO.N,unconnected-(JCARD1-Pad1)*%
X114725000Y-134225000D03*
%TO.P,JCARD1,2,DAT3/CD*%
%TO.N,/SDCard_CS*%
X114725000Y-135325000D03*
%TO.P,JCARD1,3,CMD*%
%TO.N,/MOSI*%
X114725000Y-136425000D03*
%TO.P,JCARD1,4,VDD*%
%TO.N,/VPER*%
X114725000Y-137525000D03*
%TO.P,JCARD1,5,CLK*%
%TO.N,/SCLK*%
X114725000Y-138625000D03*
%TO.P,JCARD1,6,VSS*%
%TO.N,GND*%
X114725000Y-139725000D03*
%TO.P,JCARD1,7,DAT0*%
%TO.N,/MISO*%
X114725000Y-140825000D03*
%TO.P,JCARD1,8,DAT1*%
%TO.N,unconnected-(JCARD1-Pad8)*%
X114725000Y-141925000D03*
%TO.P,JCARD1,9,DET_B*%
%TO.N,/SDCard_CD*%
X114725000Y-143025000D03*
D17*
%TO.P,JCARD1,10,DET_A*%
%TO.N,GND*%
X114000000Y-144500000D03*
D18*
%TO.P,JCARD1,11,SHIELD*%
X104500000Y-128500000D03*
X104500000Y-144500000D03*
D17*
X114000000Y-129500000D03*
%TD*%
D19*
%TO.P,U1,1,RB9*%
%TO.N,/SCLK*%
X109300000Y-121000000D03*
%TO.P,U1,2,RC6*%
%TO.N,/MISO*%
X109300000Y-120200000D03*
%TO.P,U1,3,RC7*%
%TO.N,/MOSI*%
X109300000Y-119400000D03*
%TO.P,U1,4,RC8*%
%TO.N,/CS_D*%
X109300000Y-118600000D03*
%TO.P,U1,5,PC9*%
%TO.N,/RS_D*%
X109300000Y-117800000D03*
%TO.P,U1,6,VBAT*%
%TO.N,unconnected-(U1-Pad6)*%
X109300000Y-117000000D03*
%TO.P,U1,7,VCAP*%
%TO.N,Net-(C3-Pad2)*%
X109300000Y-116200000D03*
%TO.P,U1,8,RB10*%
%TO.N,Net-(JUSB1-Pad3)*%
X109300000Y-115400000D03*
%TO.P,U1,9,RB11*%
%TO.N,Net-(JUSB1-Pad2)*%
X109300000Y-114600000D03*
%TO.P,U1,10,VUSB3V3*%
%TO.N,+3V0*%
X109300000Y-113800000D03*
%TO.P,U1,11,RB13*%
%TO.N,unconnected-(U1-Pad11)*%
X109300000Y-113000000D03*
D20*
%TO.P,U1,12,RA10*%
%TO.N,unconnected-(U1-Pad12)*%
X111000000Y-111300000D03*
%TO.P,U1,13,RA7*%
%TO.N,/VOLT_PWR*%
X111800000Y-111300000D03*
%TO.P,U1,14,RB14*%
%TO.N,/VOLT_READ*%
X112600000Y-111300000D03*
%TO.P,U1,15,RB15*%
%TO.N,GND*%
X113400000Y-111300000D03*
%TO.P,U1,16,AVSS/VSS*%
X114200000Y-111300000D03*
%TO.P,U1,17,AVDD*%
%TO.N,+3V0*%
X115000000Y-111300000D03*
%TO.P,U1,18,MCLR*%
%TO.N,/RESET*%
X115800000Y-111300000D03*
%TO.P,U1,19,RA0*%
%TO.N,+3V0*%
X116600000Y-111300000D03*
%TO.P,U1,20,RA1*%
%TO.N,GND*%
X117400000Y-111300000D03*
%TO.P,U1,21,RB0*%
%TO.N,Net-(JPICKKIT1-Pad4)*%
X118200000Y-111300000D03*
%TO.P,U1,22,RB1*%
%TO.N,Net-(JPICKKIT1-Pad5)*%
X119000000Y-111300000D03*
D19*
%TO.P,U1,23,RB2*%
%TO.N,/OC1*%
X120700000Y-113000000D03*
%TO.P,U1,24,RB3*%
%TO.N,/PER_PWR*%
X120700000Y-113800000D03*
%TO.P,U1,25,RC0*%
%TO.N,/BTN1*%
X120700000Y-114600000D03*
%TO.P,U1,26,RC1*%
%TO.N,/BTN2*%
X120700000Y-115400000D03*
%TO.P,U1,27,RC2*%
%TO.N,/BTN3*%
X120700000Y-116200000D03*
%TO.P,U1,28,VDD*%
%TO.N,+3V0*%
X120700000Y-117000000D03*
%TO.P,U1,29,VSS*%
%TO.N,GND*%
X120700000Y-117800000D03*
%TO.P,U1,30,RA2*%
%TO.N,/BTN4*%
X120700000Y-118600000D03*
%TO.P,U1,31,RA3*%
%TO.N,GND*%
X120700000Y-119400000D03*
%TO.P,U1,32,RA8*%
%TO.N,/BTN5*%
X120700000Y-120200000D03*
%TO.P,U1,33,RB4*%
%TO.N,GND*%
X120700000Y-121000000D03*
D20*
%TO.P,U1,34,RA4*%
%TO.N,/CHRG*%
X119000000Y-122700000D03*
%TO.P,U1,35,RA9*%
%TO.N,/BTN6*%
X118200000Y-122700000D03*
%TO.P,U1,36,RC3*%
%TO.N,/CHRG_PWR*%
X117400000Y-122700000D03*
%TO.P,U1,37,RC4*%
%TO.N,/SDCard_CD*%
X116600000Y-122700000D03*
%TO.P,U1,38,RC5*%
%TO.N,/SDCard_CS*%
X115800000Y-122700000D03*
%TO.P,U1,39,VSS*%
%TO.N,GND*%
X115000000Y-122700000D03*
%TO.P,U1,40,VDD*%
%TO.N,+3V0*%
X114200000Y-122700000D03*
%TO.P,U1,41,RB5*%
%TO.N,GND*%
X113400000Y-122700000D03*
%TO.P,U1,42,RB6*%
%TO.N,Net-(R1-Pad1)*%
X112600000Y-122700000D03*
%TO.P,U1,43,RB7*%
%TO.N,/CASE*%
X111800000Y-122700000D03*
%TO.P,U1,44,RB8*%
%TO.N,/RES_D*%
X111000000Y-122700000D03*
%TD*%
D21*
%TO.P,R1,1*%
%TO.N,Net-(R1-Pad1)*%
X131700000Y-115500000D03*
%TO.P,R1,2*%
%TO.N,/VUSB*%
X131700000Y-117500000D03*
%TD*%
D22*
%TO.P,JCASE2,1,Pin_1*%
%TO.N,GND*%
X104800000Y-124300000D03*
%TD*%
D23*
%TO.P,C10,1*%
%TO.N,+3V0*%
X123000000Y-116750000D03*
%TO.P,C10,2*%
%TO.N,GND*%
X123000000Y-118475000D03*
%TD*%
D21*
%TO.P,R5,1*%
%TO.N,Net-(Q3-Pad3)*%
X135000000Y-112000000D03*
%TO.P,R5,2*%
%TO.N,/VOLT_READ*%
X135000000Y-114000000D03*
%TD*%
D24*
%TO.P,C6,1*%
%TO.N,+3V0*%
X115000000Y-109000000D03*
%TO.P,C6,2*%
%TO.N,GND*%
X113275000Y-109000000D03*
%TD*%
D25*
%TO.P,U3,1,IN*%
%TO.N,Net-(C1-Pad1)*%
X127950000Y-118137500D03*
%TO.P,U3,2,GND*%
%TO.N,GND*%
X127000000Y-118137500D03*
%TO.P,U3,3,EN*%
%TO.N,Net-(C1-Pad1)*%
X126050000Y-118137500D03*
%TO.P,U3,4,BP*%
%TO.N,unconnected-(U3-Pad4)*%
X126050000Y-115862500D03*
%TO.P,U3,5,OUT*%
%TO.N,+3V0*%
X127950000Y-115862500D03*
%TD*%
%TO.P,U2,1,STAT*%
%TO.N,/CHRG*%
X135050000Y-128137500D03*
%TO.P,U2,2,VSS*%
%TO.N,GND*%
X134100000Y-128137500D03*
%TO.P,U2,3,VBAT*%
%TO.N,/VBAT*%
X133150000Y-128137500D03*
%TO.P,U2,4,VDD*%
%TO.N,Net-(Q4-Pad3)*%
X133150000Y-125862500D03*
%TO.P,U2,5,PROG*%
%TO.N,Net-(R9-Pad2)*%
X135050000Y-125862500D03*
%TD*%
D10*
%TO.P,R10,1*%
%TO.N,/PER_PWR*%
X123500000Y-132000000D03*
%TO.P,R10,2*%
%TO.N,+3V0*%
X123500000Y-130000000D03*
%TD*%
D21*
%TO.P,R11,1*%
%TO.N,+3V0*%
X123500000Y-125500000D03*
%TO.P,R11,2*%
%TO.N,/OC1*%
X123500000Y-127500000D03*
%TD*%
D10*
%TO.P,R4,1*%
%TO.N,/VOLT_READ*%
X138000000Y-114000000D03*
%TO.P,R4,2*%
%TO.N,GND*%
X138000000Y-112000000D03*
%TD*%
D26*
%TO.P,R13,1*%
%TO.N,GND*%
X137100000Y-117100000D03*
%TO.P,R13,2*%
%TO.N,/VUSB*%
X135100000Y-117100000D03*
%TD*%
D27*
%TO.P,C2,1*%
%TO.N,+3V0*%
X128037500Y-113000000D03*
%TO.P,C2,2*%
%TO.N,GND*%
X125962500Y-113000000D03*
%TD*%
D22*
%TO.P,JBAT2,1,Pin_1*%
%TO.N,GND*%
X136750000Y-131750000D03*
%TD*%
D28*
%TO.P,C7,1*%
%TO.N,+3V0*%
X126000000Y-127500000D03*
%TO.P,C7,2*%
%TO.N,GND*%
X126000000Y-125775000D03*
%TD*%
D29*
%TO.P,D3,1*%
%TO.N,unconnected-(D3-Pad1)*%
X128350000Y-124562500D03*
%TO.P,D3,2*%
%TO.N,Net-(C1-Pad1)*%
X130250000Y-124562500D03*
%TO.P,D3,3*%
%TO.N,/VUSB*%
X129300000Y-126437500D03*
%TD*%
D22*
%TO.P,JBAT1,1,Pin_1*%
%TO.N,/VBAT*%
X133500000Y-131750000D03*
%TD*%
D29*
%TO.P,Q1,1,G*%
%TO.N,/PER_PWR*%
X119500000Y-130000000D03*
%TO.P,Q1,2,S*%
%TO.N,+3V0*%
X121400000Y-130000000D03*
%TO.P,Q1,3,D*%
%TO.N,/VPER*%
X120450000Y-131875000D03*
%TD*%
D28*
%TO.P,C5,1*%
%TO.N,+3V0*%
X107200000Y-111662500D03*
%TO.P,C5,2*%
%TO.N,GND*%
X107200000Y-109937500D03*
%TD*%
D21*
%TO.P,R3,1*%
%TO.N,/VUSB*%
X152800000Y-138100000D03*
%TO.P,R3,2*%
%TO.N,Net-(D2-Pad2)*%
X152800000Y-140100000D03*
%TD*%
D10*
%TO.P,R8,1*%
%TO.N,Net-(C11-Pad1)*%
X124000000Y-109000000D03*
%TO.P,R8,2*%
%TO.N,/RESET*%
X124000000Y-107000000D03*
%TD*%
D29*
%TO.P,Q2,1,G*%
%TO.N,/OC1*%
X119500000Y-125562500D03*
%TO.P,Q2,2,S*%
%TO.N,+3V0*%
X121400000Y-125562500D03*
%TO.P,Q2,3,D*%
%TO.N,/LEDA*%
X120450000Y-127437500D03*
%TD*%
D24*
%TO.P,C8,1*%
%TO.N,+3V0*%
X114862500Y-125500000D03*
%TO.P,C8,2*%
%TO.N,GND*%
X113137500Y-125500000D03*
%TD*%
D10*
%TO.P,R12,1*%
%TO.N,/CHRG_PWR*%
X133300000Y-122750000D03*
%TO.P,R12,2*%
%TO.N,/VUSB*%
X133300000Y-120750000D03*
%TD*%
D28*
%TO.P,C9,1*%
%TO.N,+3V0*%
X126000000Y-132000000D03*
%TO.P,C9,2*%
%TO.N,GND*%
X126000000Y-130275000D03*
%TD*%
D27*
%TO.P,C1,1*%
%TO.N,Net-(C1-Pad1)*%
X128037500Y-121000000D03*
%TO.P,C1,2*%
%TO.N,GND*%
X125962500Y-121000000D03*
%TD*%
D10*
%TO.P,R2,1*%
%TO.N,Net-(D1-Pad2)*%
X155800000Y-140100000D03*
%TO.P,R2,2*%
%TO.N,Net-(Q4-Pad3)*%
X155800000Y-138100000D03*
%TD*%
D22*
%TO.P,JCASE1,1,Pin_1*%
%TO.N,/CASE*%
X108400000Y-124300000D03*
%TD*%
D23*
%TO.P,C11,1*%
%TO.N,Net-(C11-Pad1)*%
X126250000Y-107025000D03*
%TO.P,C11,2*%
%TO.N,GND*%
X126250000Y-108750000D03*
%TD*%
D10*
%TO.P,R7,1*%
%TO.N,+3V0*%
X128500000Y-109000000D03*
%TO.P,R7,2*%
%TO.N,Net-(C11-Pad1)*%
X128500000Y-107000000D03*
%TD*%
D29*
%TO.P,Q4,1,G*%
%TO.N,/CHRG_PWR*%
X135550000Y-120812500D03*
%TO.P,Q4,2,S*%
%TO.N,/VUSB*%
X137450000Y-120812500D03*
%TO.P,Q4,3,D*%
%TO.N,Net-(Q4-Pad3)*%
X136500000Y-122687500D03*
%TD*%
D30*
%TO.P,Q3,1,G*%
%TO.N,/VOLT_PWR*%
X136937500Y-107050000D03*
%TO.P,Q3,2,S*%
%TO.N,/VBAT*%
X136937500Y-108950000D03*
%TO.P,Q3,3,D*%
%TO.N,Net-(Q3-Pad3)*%
X135062500Y-108000000D03*
%TD*%
D10*
%TO.P,R6,1*%
%TO.N,/VBAT*%
X132500000Y-109000000D03*
%TO.P,R6,2*%
%TO.N,/VOLT_PWR*%
X132500000Y-107000000D03*
%TD*%
D31*
%TO.P,D2,1,K*%
%TO.N,GND*%
X155787500Y-145000000D03*
%TO.P,D2,2,A*%
%TO.N,Net-(D2-Pad2)*%
X152812500Y-145000000D03*
%TD*%
D29*
%TO.P,Q5,1,G*%
%TO.N,/VUSB*%
X128350000Y-129362500D03*
%TO.P,Q5,2,S*%
%TO.N,Net-(C1-Pad1)*%
X130250000Y-129362500D03*
%TO.P,Q5,3,D*%
%TO.N,/VBAT*%
X129300000Y-131237500D03*
%TD*%
D10*
%TO.P,R9,1*%
%TO.N,GND*%
X137300000Y-128000000D03*
%TO.P,R9,2*%
%TO.N,Net-(R9-Pad2)*%
X137300000Y-126000000D03*
%TD*%
D32*
%TO.P,C3,1*%
%TO.N,GND*%
X106400000Y-113625000D03*
%TO.P,C3,2*%
%TO.N,Net-(C3-Pad2)*%
X106400000Y-115700000D03*
%TD*%
D33*
%TO.N,/CASE*%
X104394000Y-107950000D03*
X108458000Y-126492000D03*
D34*
%TO.N,GND*%
X112500000Y-144500000D03*
X125000000Y-125300000D03*
X112000000Y-109400000D03*
D33*
X138000000Y-110800000D03*
D34*
X124900000Y-113000000D03*
X114000000Y-130600000D03*
X108400000Y-110000000D03*
X105600000Y-126300000D03*
D33*
X126250000Y-109750000D03*
D34*
X115049500Y-121100000D03*
X113350500Y-121100000D03*
X137700000Y-130200000D03*
X104500000Y-143600000D03*
X125100000Y-129900000D03*
X105900000Y-112500000D03*
X137100000Y-115700000D03*
X134237573Y-129478530D03*
D33*
X136750000Y-129250000D03*
D34*
X113600000Y-139700000D03*
X125500000Y-119900000D03*
X106700000Y-128400000D03*
X117400000Y-112600000D03*
X123000000Y-119700000D03*
X127000000Y-117000000D03*
%TO.N,/VUSB*%
X149100000Y-139200000D03*
D33*
X153975500Y-139100000D03*
%TO.N,/SDCard_CS*%
X115900000Y-126450500D03*
X115900000Y-128749500D03*
%TO.N,/MOSI*%
X111613067Y-120308533D03*
X112300000Y-130400000D03*
D34*
%TO.N,/VPER*%
X101900000Y-127600000D03*
D33*
%TO.N,/SCLK*%
X111500497Y-130400000D03*
X111500000Y-121100000D03*
%TO.N,/MISO*%
X110800000Y-120200000D03*
X110600000Y-130400000D03*
%TO.N,/SDCard_CD*%
X116699503Y-126450500D03*
X116700000Y-138274500D03*
X116900000Y-133400000D03*
X116700000Y-128749500D03*
%TO.N,/RES_D*%
X103375500Y-122000000D03*
%TO.N,/RS_D*%
X107100000Y-119224500D03*
X107100000Y-117800000D03*
D34*
%TO.N,/LEDA*%
X109728000Y-127254000D03*
X103886000Y-106172000D03*
D33*
%TO.N,Net-(JPICKKIT1-Pad4)*%
X118200000Y-110100000D03*
%TO.N,Net-(JPICKKIT1-Pad5)*%
X117300000Y-109400000D03*
%TO.N,/PER_PWR*%
X117351000Y-115573407D03*
X118624500Y-128900000D03*
%TO.N,/OC1*%
X116726500Y-116200000D03*
X117224500Y-125500000D03*
%TO.N,/VOLT_PWR*%
X129400000Y-110400000D03*
X127708285Y-110425408D03*
X119900000Y-110300000D03*
X111900000Y-112600000D03*
%TO.N,Net-(R1-Pad1)*%
X127700000Y-111674408D03*
X114600000Y-116600000D03*
X130000000Y-112300000D03*
X115800688Y-115399312D03*
%TO.N,/CHRG*%
X131574500Y-122000000D03*
X142800000Y-134524500D03*
X125212000Y-122600000D03*
X123713000Y-122600000D03*
X139900000Y-134700000D03*
X129500500Y-122000000D03*
X154100000Y-144200000D03*
%TO.N,/VOLT_READ*%
X130441589Y-111341589D03*
X120000000Y-111300000D03*
X127100000Y-111049908D03*
X113900000Y-112900000D03*
%TO.N,/BTN1*%
X111400000Y-140100000D03*
X107400000Y-142800000D03*
X107400000Y-137300000D03*
X117975500Y-116200000D03*
%TO.N,/BTN2*%
X115900000Y-143075500D03*
X115900000Y-138300000D03*
X118824500Y-133300000D03*
X118600000Y-115500000D03*
X116000000Y-134200000D03*
%TO.N,/BTN3*%
X122500000Y-143900000D03*
X119224500Y-116200000D03*
X123200000Y-135500000D03*
X120400000Y-133300000D03*
%TO.N,/BTN5*%
X121800000Y-120200000D03*
X122000000Y-131779126D03*
X140100000Y-143400000D03*
X139976783Y-136439303D03*
%TO.N,/BTN6*%
X148800000Y-143900000D03*
X117500000Y-138300000D03*
X117975500Y-124266589D03*
X148800000Y-136000000D03*
%TO.N,/BTN4*%
X121200000Y-132900000D03*
X121800000Y-118600000D03*
X127300000Y-136000000D03*
X127300000Y-143800000D03*
%TO.N,/CHRG_PWR*%
X132200000Y-122700000D03*
X129500000Y-122800000D03*
X123713000Y-123450500D03*
X125212000Y-123399503D03*
%TO.N,Net-(JUSB1-Pad2)*%
X148000000Y-144900000D03*
X150600000Y-139000000D03*
X107800000Y-114600000D03*
%TO.N,Net-(JUSB1-Pad3)*%
X151300000Y-138500000D03*
X107800000Y-115400000D03*
X102400000Y-133000000D03*
%TO.N,Net-(D1-Pad2)*%
X155004149Y-143697648D03*
%TO.N,Net-(Q4-Pad3)*%
X141600000Y-133800000D03*
X138100000Y-124400000D03*
%TD*%
D35*
%TO.N,/CASE*%
X104394000Y-108458000D02*
X104394000Y-107950000D01*
X104775000Y-108839000D02*
X104394000Y-108458000D01*
X104775000Y-109236000D02*
X104775000Y-108839000D01*
%TO.N,+3V0*%
X106773500Y-111236000D02*
X107200000Y-111662500D01*
X104775000Y-111236000D02*
X106773500Y-111236000D01*
%TO.N,/CS_D*%
X102480000Y-110580000D02*
X102000000Y-110580000D01*
X103378000Y-112268000D02*
X103378000Y-111478000D01*
X104100000Y-112990000D02*
X103378000Y-112268000D01*
X104100000Y-117000000D02*
X104100000Y-112990000D01*
X105700000Y-118600000D02*
X104100000Y-117000000D01*
X109300000Y-118600000D02*
X105700000Y-118600000D01*
X103378000Y-111478000D02*
X102480000Y-110580000D01*
%TO.N,/CASE*%
X108400000Y-126434000D02*
X108458000Y-126492000D01*
X108400000Y-124300000D02*
X108400000Y-126434000D01*
D36*
%TO.N,/LEDA*%
X102000000Y-107042000D02*
X102000000Y-108040000D01*
X102870000Y-106172000D02*
X102000000Y-107042000D01*
X103886000Y-106172000D02*
X102870000Y-106172000D01*
X109728000Y-127254000D02*
X109782000Y-127200000D01*
X109782000Y-127200000D02*
X120212500Y-127200000D01*
X120212500Y-127200000D02*
X120450000Y-127437500D01*
%TO.N,/VPER*%
X117500000Y-129750000D02*
X119625000Y-131875000D01*
X112030500Y-127999500D02*
X117010661Y-127999500D01*
X102200000Y-127300000D02*
X107488000Y-127300000D01*
X107488000Y-127300000D02*
X108966000Y-128778000D01*
X117500000Y-128488839D02*
X117500000Y-129750000D01*
X101900000Y-127600000D02*
X102200000Y-127300000D01*
X108966000Y-128778000D02*
X111252000Y-128778000D01*
X117010661Y-127999500D02*
X117500000Y-128488839D01*
X111252000Y-128778000D02*
X112030500Y-127999500D01*
%TO.N,/VBAT*%
X129300000Y-131237500D02*
X131362500Y-131237500D01*
X133500000Y-131750000D02*
X131875000Y-131750000D01*
D35*
X131900000Y-109000000D02*
X132500000Y-109000000D01*
D36*
X133500000Y-131750000D02*
X133500000Y-130400000D01*
X133150000Y-130050000D02*
X133150000Y-128137500D01*
D35*
X129250000Y-111650000D02*
X131900000Y-109000000D01*
X133150000Y-128137500D02*
X132337500Y-128137500D01*
X129250000Y-118250000D02*
X129250000Y-111650000D01*
X131300000Y-123500000D02*
X130950000Y-123150000D01*
D36*
X133500000Y-130400000D02*
X133150000Y-130050000D01*
D35*
X136937500Y-108950000D02*
X132550000Y-108950000D01*
X131300000Y-127100000D02*
X131300000Y-123500000D01*
X130950000Y-119950000D02*
X129250000Y-118250000D01*
X132550000Y-108950000D02*
X132500000Y-109000000D01*
X132337500Y-128137500D02*
X131300000Y-127100000D01*
D36*
X131875000Y-131750000D02*
X131362500Y-131237500D01*
D35*
X130950000Y-123150000D02*
X130950000Y-119950000D01*
D36*
%TO.N,GND*%
X134100000Y-129340957D02*
X134237573Y-129478530D01*
X115049500Y-121100000D02*
X115049500Y-122650500D01*
D35*
X137300000Y-128000000D02*
X136750000Y-128550000D01*
D36*
X113625000Y-139725000D02*
X113600000Y-139700000D01*
X137100000Y-117100000D02*
X137100000Y-115700000D01*
X114200000Y-110200000D02*
X114000000Y-110000000D01*
X103280000Y-125820000D02*
X105120000Y-125820000D01*
X117400000Y-112600000D02*
X117349500Y-112549500D01*
X113400000Y-111300000D02*
X113400000Y-110200000D01*
X113600000Y-110000000D02*
X113400000Y-110200000D01*
X106400000Y-113000000D02*
X106400000Y-113625000D01*
X104800000Y-125500000D02*
X104800000Y-124300000D01*
X107200000Y-109937500D02*
X108337500Y-109937500D01*
X102000000Y-125820000D02*
X103280000Y-125820000D01*
D35*
X138000000Y-112000000D02*
X138000000Y-110800000D01*
D36*
X113400000Y-110200000D02*
X113400000Y-109125000D01*
X114000000Y-129500000D02*
X114000000Y-130600000D01*
X114725000Y-139725000D02*
X113625000Y-139725000D01*
X134100000Y-128137500D02*
X134100000Y-129340957D01*
X114200000Y-111300000D02*
X114200000Y-110200000D01*
X104500000Y-128500000D02*
X106600000Y-128500000D01*
X113350500Y-121100000D02*
X113350500Y-122650500D01*
X125100000Y-129900000D02*
X125475000Y-130275000D01*
D35*
X126250000Y-108750000D02*
X126250000Y-109750000D01*
D36*
X113400000Y-125237500D02*
X113137500Y-125500000D01*
X127000000Y-118137500D02*
X127000000Y-117000000D01*
X113400000Y-122700000D02*
X113400000Y-125237500D01*
X105600000Y-126300000D02*
X104800000Y-125500000D01*
X137700000Y-130200000D02*
X137700000Y-130800000D01*
X125525000Y-125300000D02*
X126000000Y-125775000D01*
X108337500Y-109937500D02*
X108400000Y-110000000D01*
X122700000Y-119400000D02*
X123000000Y-119700000D01*
X123000000Y-118475000D02*
X123000000Y-119700000D01*
X113275000Y-109000000D02*
X113275000Y-108995000D01*
X137700000Y-130800000D02*
X136750000Y-131750000D01*
X114000000Y-110000000D02*
X113600000Y-110000000D01*
D35*
X156195000Y-144592500D02*
X156195000Y-142375000D01*
D36*
X113350500Y-122650500D02*
X113400000Y-122700000D01*
X113400000Y-109125000D02*
X113275000Y-109000000D01*
X125000000Y-125300000D02*
X125525000Y-125300000D01*
X122200000Y-121000000D02*
X123000000Y-120200000D01*
X120700000Y-121000000D02*
X122200000Y-121000000D01*
X105120000Y-125820000D02*
X105600000Y-126300000D01*
X117349500Y-111350500D02*
X117400000Y-111300000D01*
X112400000Y-109000000D02*
X112000000Y-109400000D01*
X123000000Y-118400000D02*
X123000000Y-118475000D01*
X123000000Y-120200000D02*
X123000000Y-119700000D01*
X106600000Y-128500000D02*
X106700000Y-128400000D01*
X125500000Y-119900000D02*
X125500000Y-120537500D01*
X120700000Y-119400000D02*
X122700000Y-119400000D01*
D35*
X155787500Y-145000000D02*
X156195000Y-144592500D01*
D36*
X125475000Y-130275000D02*
X126000000Y-130275000D01*
X120700000Y-117800000D02*
X122400000Y-117800000D01*
D35*
X136750000Y-128550000D02*
X136750000Y-129250000D01*
D36*
X122400000Y-117800000D02*
X123000000Y-118400000D01*
X124900000Y-113000000D02*
X125962500Y-113000000D01*
X105900000Y-112500000D02*
X106400000Y-113000000D01*
X125500000Y-120537500D02*
X125962500Y-121000000D01*
X114000000Y-144500000D02*
X112500000Y-144500000D01*
X113275000Y-108995000D02*
X115270000Y-107000000D01*
X117349500Y-112549500D02*
X117349500Y-111350500D01*
X113275000Y-109000000D02*
X112400000Y-109000000D01*
X104500000Y-144500000D02*
X104500000Y-143600000D01*
X115049500Y-122650500D02*
X115000000Y-122700000D01*
%TO.N,+3V0*%
X114200000Y-122700000D02*
X114200000Y-124300000D01*
X124400000Y-124200000D02*
X124462500Y-124137500D01*
X125600000Y-132000000D02*
X123600000Y-130000000D01*
X123500000Y-130000000D02*
X121400000Y-130000000D01*
X115400000Y-109000000D02*
X117400000Y-107000000D01*
X116200000Y-117000000D02*
X116500000Y-117000000D01*
X128037500Y-113000000D02*
X128500000Y-112537500D01*
X123500000Y-125500000D02*
X121462500Y-125500000D01*
X109300000Y-113800000D02*
X108100000Y-113800000D01*
X126000000Y-127500000D02*
X125800000Y-127500000D01*
X113750000Y-114550000D02*
X116200000Y-117000000D01*
X128037500Y-114537500D02*
X124462500Y-114537500D01*
X117400000Y-107000000D02*
X117810000Y-107000000D01*
X108000000Y-112462500D02*
X107200000Y-111662500D01*
X128037500Y-115775000D02*
X127950000Y-115862500D01*
X108100000Y-113800000D02*
X108000000Y-113700000D01*
X115000000Y-113500000D02*
X113950000Y-114550000D01*
X122000000Y-124200000D02*
X124400000Y-124200000D01*
X113950000Y-114550000D02*
X113750000Y-114550000D01*
X121400000Y-124800000D02*
X122000000Y-124200000D01*
X109300000Y-113800000D02*
X113000000Y-113800000D01*
X115000000Y-111300000D02*
X115000000Y-109000000D01*
X115400000Y-113500000D02*
X116600000Y-112300000D01*
X122000000Y-117000000D02*
X120700000Y-117000000D01*
X123000000Y-116750000D02*
X123000000Y-115075000D01*
X114200000Y-124300000D02*
X114862500Y-124962500D01*
X108000000Y-113700000D02*
X108000000Y-112462500D01*
X128037500Y-113000000D02*
X128037500Y-114537500D01*
X128500000Y-112537500D02*
X128500000Y-109000000D01*
X126000000Y-132000000D02*
X125600000Y-132000000D01*
X116600000Y-112300000D02*
X116600000Y-111300000D01*
X121462500Y-125500000D02*
X121400000Y-125562500D01*
X114200000Y-119300000D02*
X114200000Y-122700000D01*
X115000000Y-109000000D02*
X115400000Y-109000000D01*
X122000000Y-117000000D02*
X122250000Y-116750000D01*
X114200000Y-119300000D02*
X115350000Y-118150000D01*
X124462500Y-124137500D02*
X124462500Y-114537500D01*
X122250000Y-116750000D02*
X123000000Y-116750000D01*
X123500000Y-130000000D02*
X126000000Y-127500000D01*
X123800000Y-125500000D02*
X123500000Y-125500000D01*
X121400000Y-125562500D02*
X121400000Y-124800000D01*
X114862500Y-124962500D02*
X114862500Y-125500000D01*
X123600000Y-130000000D02*
X123500000Y-130000000D01*
X123000000Y-115075000D02*
X123537500Y-114537500D01*
X124462500Y-114537500D02*
X123537500Y-114537500D01*
X113000000Y-113800000D02*
X113750000Y-114550000D01*
X115000000Y-113500000D02*
X115400000Y-113500000D01*
X119000000Y-117000000D02*
X120700000Y-117000000D01*
X115350000Y-118150000D02*
X116500000Y-117000000D01*
X128037500Y-114537500D02*
X128037500Y-115775000D01*
X116500000Y-117000000D02*
X119000000Y-117000000D01*
X115000000Y-111300000D02*
X115000000Y-113500000D01*
X125800000Y-127500000D02*
X123800000Y-125500000D01*
%TO.N,Net-(C3-Pad2)*%
X106900000Y-116200000D02*
X106400000Y-115700000D01*
X109300000Y-116200000D02*
X106900000Y-116200000D01*
%TO.N,/VUSB*%
X133300000Y-120000000D02*
X131850000Y-118550000D01*
X128350000Y-127387500D02*
X129300000Y-126437500D01*
X128350000Y-133550000D02*
X128350000Y-129362500D01*
X144700000Y-139200000D02*
X141200000Y-135700000D01*
X131850000Y-117650000D02*
X131700000Y-117500000D01*
X149100000Y-139200000D02*
X147200000Y-139200000D01*
X139000000Y-132800000D02*
X139000000Y-121200000D01*
X133300000Y-119500000D02*
X133300000Y-120750000D01*
X135600000Y-135700000D02*
X134000000Y-134100000D01*
D35*
X153800000Y-139100000D02*
X152800000Y-138100000D01*
D36*
X135100000Y-117100000D02*
X135100000Y-118900000D01*
X140100000Y-135689303D02*
X138910697Y-135689303D01*
X141200000Y-135700000D02*
X141200000Y-134660661D01*
X141200000Y-135700000D02*
X140100000Y-135700000D01*
X136600000Y-119000000D02*
X135200000Y-119000000D01*
X147200000Y-139200000D02*
X144700000Y-139200000D01*
X138910697Y-135689303D02*
X138900000Y-135700000D01*
X138612500Y-120812500D02*
X137450000Y-120812500D01*
X140200000Y-134000000D02*
X139000000Y-132800000D01*
X131850000Y-118550000D02*
X131850000Y-117650000D01*
X138900000Y-135700000D02*
X135600000Y-135700000D01*
X135200000Y-119000000D02*
X133800000Y-119000000D01*
X133800000Y-119000000D02*
X133300000Y-119500000D01*
X140539339Y-134000000D02*
X140200000Y-134000000D01*
X128350000Y-129362500D02*
X128350000Y-127387500D01*
X141200000Y-134660661D02*
X140539339Y-134000000D01*
X137450000Y-120812500D02*
X137450000Y-119850000D01*
X128900000Y-134100000D02*
X128350000Y-133550000D01*
X135100000Y-118900000D02*
X135200000Y-119000000D01*
X134000000Y-134100000D02*
X128900000Y-134100000D01*
D35*
X153975500Y-139100000D02*
X153800000Y-139100000D01*
D36*
X133300000Y-120750000D02*
X133300000Y-120000000D01*
X137450000Y-119850000D02*
X136600000Y-119000000D01*
X139000000Y-121200000D02*
X138612500Y-120812500D01*
D35*
%TO.N,/SDCard_CS*%
X115800000Y-124200000D02*
X115800000Y-122700000D01*
X114800000Y-131700000D02*
X114200000Y-131700000D01*
X113600000Y-132300000D02*
X113600000Y-134900000D01*
X113600000Y-134900000D02*
X114025000Y-135325000D01*
X114025000Y-135325000D02*
X114725000Y-135325000D01*
X115900000Y-128749500D02*
X115900000Y-130600000D01*
X114200000Y-131700000D02*
X113600000Y-132300000D01*
X115900000Y-130600000D02*
X114800000Y-131700000D01*
X115900000Y-124300000D02*
X115800000Y-124200000D01*
X115900000Y-126450500D02*
X115900000Y-124300000D01*
%TO.N,/MOSI*%
X110883884Y-119400000D02*
X109300000Y-119400000D01*
X107800000Y-119900000D02*
X103700000Y-119900000D01*
X113000000Y-133500000D02*
X113000000Y-135300000D01*
X111613067Y-120129183D02*
X110883884Y-119400000D01*
X109300000Y-119400000D02*
X108300000Y-119400000D01*
X112300000Y-130400000D02*
X112300000Y-132800000D01*
X114125000Y-136425000D02*
X114725000Y-136425000D01*
X103700000Y-119900000D02*
X102000000Y-118200000D01*
X108300000Y-119400000D02*
X107800000Y-119900000D01*
X113000000Y-135300000D02*
X114125000Y-136425000D01*
X112300000Y-132800000D02*
X113000000Y-133500000D01*
X111613067Y-120308533D02*
X111613067Y-120129183D01*
D36*
%TO.N,/VPER*%
X117175000Y-137525000D02*
X114725000Y-137525000D01*
X119625000Y-135075000D02*
X117175000Y-137525000D01*
X120450000Y-131875000D02*
X119625000Y-131875000D01*
X119625000Y-131875000D02*
X119625000Y-135075000D01*
D35*
%TO.N,/SCLK*%
X111500497Y-133400497D02*
X112500000Y-134400000D01*
X111500000Y-121100000D02*
X111400000Y-121000000D01*
X112500000Y-134400000D02*
X112500000Y-137300000D01*
X102260000Y-121000000D02*
X102000000Y-120740000D01*
X113825000Y-138625000D02*
X114725000Y-138625000D01*
X112500000Y-137300000D02*
X113825000Y-138625000D01*
X109300000Y-121000000D02*
X102260000Y-121000000D01*
X111500497Y-130400000D02*
X111500497Y-133400497D01*
X111400000Y-121000000D02*
X109300000Y-121000000D01*
%TO.N,/MISO*%
X110800000Y-120200000D02*
X109300000Y-120200000D01*
X112000000Y-139300000D02*
X113525000Y-140825000D01*
X112000000Y-135700000D02*
X112000000Y-139300000D01*
X110600000Y-130400000D02*
X110600000Y-134300000D01*
X113525000Y-140825000D02*
X114725000Y-140825000D01*
X110600000Y-134300000D02*
X112000000Y-135700000D01*
%TO.N,/SDCard_CD*%
X116900000Y-133400000D02*
X116900000Y-131700000D01*
X116700000Y-131500000D02*
X116700000Y-128749500D01*
X116699503Y-126450500D02*
X116600000Y-126350997D01*
X116900000Y-131700000D02*
X116700000Y-131500000D01*
X116500000Y-143700000D02*
X115400000Y-143700000D01*
X115400000Y-143700000D02*
X114725000Y-143025000D01*
X116800000Y-143400000D02*
X116500000Y-143700000D01*
X116700000Y-138274500D02*
X116800000Y-138374500D01*
X116800000Y-138374500D02*
X116800000Y-143400000D01*
X116600000Y-126350997D02*
X116600000Y-122700000D01*
%TO.N,/CASE*%
X110600000Y-124900000D02*
X109000000Y-124900000D01*
X111800000Y-122700000D02*
X111800000Y-123700000D01*
X109000000Y-124900000D02*
X108400000Y-124300000D01*
X111800000Y-123700000D02*
X110600000Y-124900000D01*
%TO.N,/RES_D*%
X110300000Y-122000000D02*
X111000000Y-122700000D01*
X103375500Y-122000000D02*
X110300000Y-122000000D01*
%TO.N,/RS_D*%
X107100000Y-119224500D02*
X105324500Y-119224500D01*
X103450000Y-117350000D02*
X103450000Y-114570000D01*
X103450000Y-114570000D02*
X102000000Y-113120000D01*
X107100000Y-117800000D02*
X109300000Y-117800000D01*
X105324500Y-119224500D02*
X103450000Y-117350000D01*
%TO.N,/RESET*%
X115800000Y-111300000D02*
X115800000Y-109800000D01*
X118850000Y-108500000D02*
X120350000Y-107000000D01*
X117100000Y-108500000D02*
X118850000Y-108500000D01*
X115800000Y-109800000D02*
X117100000Y-108500000D01*
X120350000Y-107000000D02*
X124000000Y-107000000D01*
%TO.N,Net-(JPICKKIT1-Pad4)*%
X118200000Y-111300000D02*
X118200000Y-110100000D01*
%TO.N,Net-(JPICKKIT1-Pad5)*%
X118600000Y-109400000D02*
X117300000Y-109400000D01*
X119000000Y-111300000D02*
X119000000Y-109800000D01*
X119000000Y-109800000D02*
X118600000Y-109400000D01*
D36*
%TO.N,Net-(C1-Pad1)*%
X130250000Y-129362500D02*
X130250000Y-124562500D01*
X126500000Y-119500000D02*
X126050000Y-119050000D01*
X130250000Y-124562500D02*
X130250000Y-123050000D01*
X130250000Y-121450000D02*
X129800000Y-121000000D01*
X128037500Y-119837500D02*
X127700000Y-119500000D01*
X127950000Y-118137500D02*
X127950000Y-119250000D01*
X126050000Y-119050000D02*
X126050000Y-118137500D01*
X127950000Y-119250000D02*
X127700000Y-119500000D01*
X129800000Y-121000000D02*
X128037500Y-121000000D01*
X130250000Y-123050000D02*
X130250000Y-121450000D01*
X128037500Y-121000000D02*
X128037500Y-119837500D01*
X127700000Y-119500000D02*
X126500000Y-119500000D01*
D35*
%TO.N,Net-(D2-Pad2)*%
X152812500Y-144187500D02*
X153800000Y-143200000D01*
X153800000Y-143200000D02*
X153800000Y-141100000D01*
X153800000Y-141100000D02*
X152800000Y-140100000D01*
X152812500Y-145000000D02*
X152812500Y-144187500D01*
%TO.N,/PER_PWR*%
X119990749Y-130000000D02*
X121145374Y-131154626D01*
X117351000Y-115573407D02*
X117351000Y-115149000D01*
X121145374Y-131154626D02*
X122654626Y-131154626D01*
X118624500Y-128900000D02*
X119400000Y-129675500D01*
X117351000Y-115149000D02*
X118700000Y-113800000D01*
X119500000Y-130000000D02*
X119990749Y-130000000D01*
X122654626Y-131154626D02*
X123500000Y-132000000D01*
X118700000Y-113800000D02*
X120700000Y-113800000D01*
X119400000Y-129675500D02*
X119400000Y-129900000D01*
X119400000Y-129900000D02*
X119500000Y-130000000D01*
%TO.N,/OC1*%
X116726500Y-115037104D02*
X118663604Y-113100000D01*
X119500000Y-125562500D02*
X119984251Y-125562500D01*
X116726500Y-116200000D02*
X116726500Y-115037104D01*
X117224500Y-125500000D02*
X117287000Y-125562500D01*
X118663604Y-113100000D02*
X120600000Y-113100000D01*
X120600000Y-113100000D02*
X120700000Y-113000000D01*
X119984251Y-125562500D02*
X121921751Y-127500000D01*
X117287000Y-125562500D02*
X119500000Y-125562500D01*
X121921751Y-127500000D02*
X123500000Y-127500000D01*
%TO.N,/VOLT_PWR*%
X136887500Y-107000000D02*
X132500000Y-107000000D01*
X131900000Y-107000000D02*
X132500000Y-107000000D01*
X130800000Y-108100000D02*
X131900000Y-107000000D01*
X119900000Y-110300000D02*
X120025408Y-110425408D01*
X111800000Y-112500000D02*
X111900000Y-112600000D01*
X129400000Y-110400000D02*
X130800000Y-109000000D01*
X130800000Y-109000000D02*
X130800000Y-108100000D01*
X120025408Y-110425408D02*
X127708285Y-110425408D01*
X111800000Y-111300000D02*
X111800000Y-112500000D01*
X136937500Y-107050000D02*
X136887500Y-107000000D01*
%TO.N,Net-(Q3-Pad3)*%
X138500000Y-108200000D02*
X138300000Y-108000000D01*
X138100000Y-109900000D02*
X138500000Y-109500000D01*
X137000000Y-109900000D02*
X138100000Y-109900000D01*
X138300000Y-108000000D02*
X135062500Y-108000000D01*
X138500000Y-109500000D02*
X138500000Y-108200000D01*
X135000000Y-111900000D02*
X137000000Y-109900000D01*
X135000000Y-112000000D02*
X135000000Y-111900000D01*
%TO.N,Net-(R1-Pad1)*%
X117700305Y-113325000D02*
X117675000Y-113325000D01*
X118125000Y-112875000D02*
X118125000Y-112900305D01*
X127574408Y-111800000D02*
X123200000Y-111800000D01*
X115800688Y-115199312D02*
X115800688Y-115399312D01*
X127700000Y-111674408D02*
X127574408Y-111800000D01*
X118450000Y-112550000D02*
X118125000Y-112875000D01*
X118125000Y-112900305D02*
X117700305Y-113325000D01*
X112600000Y-119200000D02*
X112600000Y-122700000D01*
X114599312Y-116600688D02*
X114599312Y-117200688D01*
X131700000Y-114000000D02*
X131700000Y-115500000D01*
X119925000Y-112100000D02*
X119475000Y-112550000D01*
X117675000Y-113325000D02*
X115800688Y-115199312D01*
X114599312Y-117200688D02*
X112600000Y-119200000D01*
X130000000Y-112300000D02*
X131700000Y-114000000D01*
X122900000Y-112100000D02*
X119925000Y-112100000D01*
X119475000Y-112550000D02*
X118450000Y-112550000D01*
X123200000Y-111800000D02*
X122900000Y-112100000D01*
X114599312Y-116600688D02*
X114600000Y-116600000D01*
%TO.N,/CHRG*%
X149000000Y-134600000D02*
X151300000Y-136900000D01*
X154300000Y-139900000D02*
X154300000Y-144000000D01*
X135100000Y-133600000D02*
X135100000Y-128187500D01*
X132200000Y-127000000D02*
X134700000Y-127000000D01*
X154600000Y-139600000D02*
X154300000Y-139900000D01*
X131574500Y-122000000D02*
X131574500Y-122974500D01*
X129500500Y-122000000D02*
X128900000Y-122000000D01*
X135100000Y-128187500D02*
X135050000Y-128137500D01*
X136200000Y-134700000D02*
X135100000Y-133600000D01*
X154600000Y-137500000D02*
X154600000Y-139600000D01*
X139900000Y-134700000D02*
X136200000Y-134700000D01*
X128300000Y-122600000D02*
X125212000Y-122600000D01*
X131574500Y-122974500D02*
X131850000Y-123250000D01*
X123563000Y-122750000D02*
X123713000Y-122600000D01*
X154000000Y-136900000D02*
X154600000Y-137500000D01*
X134700000Y-127000000D02*
X135050000Y-127350000D01*
X131850000Y-126650000D02*
X132200000Y-127000000D01*
X119050000Y-122750000D02*
X123563000Y-122750000D01*
X154300000Y-144000000D02*
X154100000Y-144200000D01*
X135050000Y-127350000D02*
X135050000Y-128137500D01*
X151300000Y-136900000D02*
X154000000Y-136900000D01*
X128900000Y-122000000D02*
X128300000Y-122600000D01*
X131850000Y-123250000D02*
X131850000Y-126650000D01*
X142800000Y-134524500D02*
X142875500Y-134600000D01*
X142875500Y-134600000D02*
X149000000Y-134600000D01*
X119000000Y-122700000D02*
X119050000Y-122750000D01*
%TO.N,/VOLT_READ*%
X131141589Y-111341589D02*
X133800000Y-114000000D01*
X112600000Y-111300000D02*
X112600000Y-112300000D01*
X127100000Y-111049908D02*
X127049908Y-111100000D01*
X120200000Y-111100000D02*
X120000000Y-111300000D01*
X135000000Y-114000000D02*
X138000000Y-114000000D01*
X112600000Y-112300000D02*
X113200000Y-112900000D01*
X113200000Y-112900000D02*
X113900000Y-112900000D01*
X133800000Y-114000000D02*
X135000000Y-114000000D01*
X130441589Y-111341589D02*
X131141589Y-111341589D01*
X127049908Y-111100000D02*
X120200000Y-111100000D01*
%TO.N,Net-(R9-Pad2)*%
X137162500Y-125862500D02*
X137300000Y-126000000D01*
X135050000Y-125862500D02*
X137162500Y-125862500D01*
%TO.N,/BTN1*%
X117975500Y-116200000D02*
X117975500Y-115224500D01*
X118600000Y-114600000D02*
X120700000Y-114600000D01*
X117975500Y-115224500D02*
X118600000Y-114600000D01*
X107400000Y-142800000D02*
X107400000Y-138800000D01*
X107400000Y-138800000D02*
X107400000Y-137300000D01*
X111400000Y-140100000D02*
X110100000Y-138800000D01*
X110100000Y-138800000D02*
X107400000Y-138800000D01*
%TO.N,/BTN2*%
X116000000Y-134200000D02*
X117924500Y-134200000D01*
X115900000Y-138300000D02*
X115900000Y-143075500D01*
X118700000Y-115400000D02*
X120700000Y-115400000D01*
X118600000Y-115500000D02*
X118700000Y-115400000D01*
X117924500Y-134200000D02*
X118824500Y-133300000D01*
%TO.N,/BTN3*%
X120700000Y-116200000D02*
X119224500Y-116200000D01*
X120600000Y-142900000D02*
X121600000Y-143900000D01*
X122750000Y-135500000D02*
X122250000Y-136000000D01*
X122250000Y-136000000D02*
X121800000Y-136000000D01*
X123200000Y-135500000D02*
X121700000Y-135500000D01*
X120400000Y-134200000D02*
X120400000Y-133300000D01*
X121800000Y-136000000D02*
X120600000Y-137200000D01*
X123200000Y-135500000D02*
X122750000Y-135500000D01*
X121600000Y-143900000D02*
X122500000Y-143900000D01*
X120600000Y-137200000D02*
X120600000Y-142900000D01*
X121700000Y-135500000D02*
X120400000Y-134200000D01*
%TO.N,/BTN5*%
X122500000Y-133300000D02*
X126500000Y-133300000D01*
X122000000Y-131779126D02*
X122000000Y-132800000D01*
X126500000Y-133300000D02*
X128400000Y-135200000D01*
X120700000Y-120200000D02*
X121800000Y-120200000D01*
X122000000Y-132800000D02*
X122500000Y-133300000D01*
X139937480Y-136400000D02*
X139976783Y-136439303D01*
X140000000Y-136462520D02*
X139976783Y-136439303D01*
X128400000Y-135200000D02*
X133400000Y-135200000D01*
X134600000Y-136400000D02*
X139937480Y-136400000D01*
X140000000Y-143300000D02*
X140000000Y-136462520D01*
X133400000Y-135200000D02*
X134600000Y-136400000D01*
X140100000Y-143400000D02*
X140000000Y-143300000D01*
%TO.N,/BTN6*%
X148800000Y-143900000D02*
X148116116Y-143900000D01*
X149900000Y-140600000D02*
X148800000Y-141700000D01*
X147416116Y-144600000D02*
X121325000Y-144600000D01*
X121325000Y-144600000D02*
X119800000Y-143075000D01*
X148116116Y-143900000D02*
X147416116Y-144600000D01*
X118200000Y-124042089D02*
X118200000Y-122700000D01*
X119800000Y-138700000D02*
X119299801Y-138199801D01*
X149900000Y-137100000D02*
X149900000Y-140600000D01*
X117975500Y-124266589D02*
X118200000Y-124042089D01*
X117600199Y-138199801D02*
X117500000Y-138300000D01*
X148800000Y-141700000D02*
X148800000Y-143900000D01*
X119299801Y-138199801D02*
X117600199Y-138199801D01*
X148800000Y-136000000D02*
X149900000Y-137100000D01*
X119800000Y-143075000D02*
X119800000Y-138700000D01*
%TO.N,/BTN4*%
X121700000Y-143200000D02*
X126700000Y-143200000D01*
X127300000Y-136000000D02*
X127200000Y-136000000D01*
X127300000Y-136000000D02*
X127100000Y-135800000D01*
X121200000Y-133400000D02*
X121200000Y-132900000D01*
X127100000Y-135800000D02*
X127100000Y-135500000D01*
X121200000Y-142700000D02*
X121700000Y-143200000D01*
X126700000Y-143200000D02*
X127300000Y-143800000D01*
X125600000Y-134000000D02*
X121800000Y-134000000D01*
X121200000Y-137400000D02*
X121200000Y-142700000D01*
X122000000Y-136600000D02*
X121200000Y-137400000D01*
X127100000Y-135500000D02*
X125600000Y-134000000D01*
X126600000Y-136600000D02*
X122000000Y-136600000D01*
X120700000Y-118600000D02*
X121800000Y-118600000D01*
X121800000Y-134000000D02*
X121200000Y-133400000D01*
X127200000Y-136000000D02*
X126600000Y-136600000D01*
%TO.N,/CHRG_PWR*%
X117350500Y-122749500D02*
X117350500Y-124650500D01*
X118400000Y-125000000D02*
X119200000Y-124200000D01*
X134550000Y-122750000D02*
X135550000Y-121750000D01*
X125212000Y-123399503D02*
X125800497Y-123399503D01*
X128500000Y-123200000D02*
X128900000Y-122800000D01*
X125800497Y-123399503D02*
X126000000Y-123200000D01*
X133300000Y-122750000D02*
X134550000Y-122750000D01*
X119200000Y-124200000D02*
X119800000Y-124200000D01*
X119800000Y-124200000D02*
X120549500Y-123450500D01*
X132200000Y-122700000D02*
X132250000Y-122750000D01*
X128900000Y-122800000D02*
X129500000Y-122800000D01*
X117350500Y-124650500D02*
X117700000Y-125000000D01*
X132250000Y-122750000D02*
X133300000Y-122750000D01*
X120549500Y-123450500D02*
X123713000Y-123450500D01*
X117400000Y-122700000D02*
X117350500Y-122749500D01*
X126000000Y-123200000D02*
X128500000Y-123200000D01*
X135550000Y-121750000D02*
X135550000Y-120812500D01*
X117700000Y-125000000D02*
X118400000Y-125000000D01*
%TO.N,Net-(C11-Pad1)*%
X125975000Y-107025000D02*
X126250000Y-107025000D01*
X126275000Y-107000000D02*
X126250000Y-107025000D01*
X124000000Y-109000000D02*
X125975000Y-107025000D01*
X128500000Y-107000000D02*
X126275000Y-107000000D01*
%TO.N,Net-(JUSB1-Pad2)*%
X150600000Y-139000000D02*
X150800000Y-139200000D01*
X150300000Y-143500000D02*
X148900000Y-144900000D01*
X150800000Y-140800000D02*
X150300000Y-141300000D01*
X150300000Y-141300000D02*
X150300000Y-143500000D01*
X148900000Y-144900000D02*
X148000000Y-144900000D01*
X109300000Y-114600000D02*
X107800000Y-114600000D01*
X150800000Y-139200000D02*
X150800000Y-140800000D01*
%TO.N,Net-(JUSB1-Pad3)*%
X103050000Y-145600000D02*
X102400000Y-144950000D01*
X151300000Y-141000000D02*
X150900000Y-141400000D01*
X150900000Y-141700000D02*
X150900000Y-144400000D01*
X109300000Y-115400000D02*
X107800000Y-115400000D01*
X150900000Y-141400000D02*
X150900000Y-141700000D01*
X102400000Y-144950000D02*
X102400000Y-133000000D01*
X149700000Y-145600000D02*
X103050000Y-145600000D01*
X150900000Y-144400000D02*
X149700000Y-145600000D01*
X151300000Y-138500000D02*
X151300000Y-141000000D01*
%TO.N,Net-(D1-Pad2)*%
X154900000Y-141000000D02*
X155800000Y-140100000D01*
X154900000Y-143593499D02*
X154900000Y-141000000D01*
X155004149Y-143697648D02*
X154900000Y-143593499D01*
%TO.N,Net-(Q4-Pad3)*%
X154800000Y-136300000D02*
X155800000Y-137300000D01*
X138100000Y-124400000D02*
X137000000Y-124400000D01*
X155800000Y-137300000D02*
X155800000Y-138100000D01*
D36*
X136500000Y-123900000D02*
X136200000Y-124200000D01*
X133150000Y-125050000D02*
X134000000Y-124200000D01*
X136500000Y-122687500D02*
X136500000Y-123900000D01*
D35*
X151800000Y-136300000D02*
X154800000Y-136300000D01*
X149400000Y-133900000D02*
X151800000Y-136300000D01*
D36*
X136200000Y-124200000D02*
X134000000Y-124200000D01*
D35*
X141600000Y-133800000D02*
X141700000Y-133900000D01*
D36*
X133150000Y-125862500D02*
X133150000Y-125050000D01*
D35*
X137000000Y-124400000D02*
X136500000Y-123900000D01*
X141700000Y-133900000D02*
X149400000Y-133900000D01*
%TD*%
M02*
